<?xml version="1.0" encoding="UTF-8"?>
<svg xmlns="http://www.w3.org/2000/svg" xmlns:xlink="http://www.w3.org/1999/xlink" width="40px" height="40px" viewBox="0 0 40 40" version="1.1">
<defs>
<clipPath id="clip1">
  <path d="M 13 11 L 29 11 L 29 27 L 13 27 Z M 13 11 "/>
</clipPath>
<clipPath id="clip2">
  <path d="M 20.734375 11.128906 C 18.730469 11.128906 16.84375 11.921875 15.425781 13.355469 C 14.007812 14.789062 13.226562 16.695312 13.226562 18.726562 C 13.226562 20.753906 14.007812 22.660156 15.425781 24.097656 C 16.84375 25.53125 18.730469 26.320312 20.734375 26.320312 C 22.742188 26.320312 24.625 25.53125 26.046875 24.097656 C 27.460938 22.660156 28.242188 20.753906 28.242188 18.726562 C 28.242188 16.695312 27.460938 14.789062 26.046875 13.355469 C 24.625 11.921875 22.742188 11.128906 20.734375 11.128906 Z M 20.734375 26.273438 C 16.621094 26.273438 13.273438 22.886719 13.273438 18.726562 C 13.273438 14.5625 16.621094 11.175781 20.734375 11.175781 C 24.851562 11.175781 28.199219 14.5625 28.199219 18.726562 C 28.199219 22.886719 24.851562 26.273438 20.734375 26.273438 Z M 20.734375 26.273438 "/>
</clipPath>
<radialGradient id="radial0" gradientUnits="userSpaceOnUse" cx="-454.29391" cy="595.95142" fx="-454.29391" fy="595.95142" r="487.25089" gradientTransform="matrix(0.139102,0,0,0.140713,48.344746,-44.918441)">
<stop offset="0" style="stop-color:rgb(29.803922%,25.098039%,60%);stop-opacity:1;"/>
<stop offset="1" style="stop-color:rgb(49.019608%,8.235294%,60.784314%);stop-opacity:1;"/>
</radialGradient>
<clipPath id="clip3">
  <path d="M 11 12 L 28 12 L 28 29 L 11 29 Z M 11 12 "/>
</clipPath>
<clipPath id="clip4">
  <path d="M 19.757812 12.394531 C 17.65625 12.394531 15.679688 13.222656 14.195312 14.722656 C 12.710938 16.226562 11.890625 18.226562 11.890625 20.351562 C 11.890625 22.476562 12.710938 24.472656 14.195312 25.976562 C 15.679688 27.480469 17.65625 28.308594 19.757812 28.308594 C 21.859375 28.308594 23.832031 27.480469 25.320312 25.976562 C 26.804688 24.472656 27.625 22.476562 27.625 20.351562 C 27.625 18.226562 26.804688 16.226562 25.320312 14.722656 C 23.832031 13.222656 21.859375 12.394531 19.757812 12.394531 Z M 19.757812 28.082031 C 15.542969 28.082031 12.117188 24.613281 12.117188 20.351562 C 12.117188 16.089844 15.542969 12.621094 19.757812 12.621094 C 23.972656 12.621094 27.398438 16.089844 27.398438 20.351562 C 27.398438 24.613281 23.972656 28.082031 19.757812 28.082031 Z M 19.757812 28.082031 "/>
</clipPath>
<radialGradient id="radial1" gradientUnits="userSpaceOnUse" cx="-454.29391" cy="595.95142" fx="-454.29391" fy="595.95142" r="487.25159" gradientTransform="matrix(0.139102,0,0,0.140713,48.344746,-44.918441)">
<stop offset="0" style="stop-color:rgb(29.803922%,25.098039%,60%);stop-opacity:1;"/>
<stop offset="1" style="stop-color:rgb(49.019608%,8.235294%,60.784314%);stop-opacity:1;"/>
</radialGradient>
<clipPath id="clip5">
  <path d="M 10 11 L 28 11 L 28 29 L 10 29 Z M 10 11 "/>
</clipPath>
<clipPath id="clip6">
  <path d="M 18.976562 11.359375 C 16.769531 11.359375 14.695312 12.230469 13.136719 13.808594 C 11.574219 15.386719 10.714844 17.488281 10.714844 19.71875 C 10.714844 21.953125 11.574219 24.050781 13.136719 25.628906 C 14.695312 27.207031 16.769531 28.078125 18.976562 28.078125 C 21.183594 28.078125 23.261719 27.207031 24.820312 25.628906 C 26.382812 24.050781 27.242188 21.953125 27.242188 19.71875 C 27.242188 17.488281 26.382812 15.386719 24.820312 13.808594 C 23.261719 12.230469 21.183594 11.359375 18.976562 11.359375 Z M 18.976562 27.804688 C 14.570312 27.804688 10.984375 24.175781 10.984375 19.71875 C 10.984375 15.261719 14.570312 11.632812 18.976562 11.632812 C 23.386719 11.632812 26.972656 15.261719 26.972656 19.71875 C 26.972656 24.175781 23.386719 27.804688 18.976562 27.804688 Z M 18.976562 27.804688 "/>
</clipPath>
<radialGradient id="radial2" gradientUnits="userSpaceOnUse" cx="-454.2944" cy="595.95728" fx="-454.2944" fy="595.95728" r="487.25699" gradientTransform="matrix(0.139102,0,0,0.140713,48.344746,-44.918441)">
<stop offset="0" style="stop-color:rgb(29.803922%,25.098039%,60%);stop-opacity:1;"/>
<stop offset="1" style="stop-color:rgb(49.019608%,8.235294%,60.784314%);stop-opacity:1;"/>
</radialGradient>
<clipPath id="clip7">
  <path d="M 10 11 L 28 11 L 28 29 L 10 29 Z M 10 11 "/>
</clipPath>
<clipPath id="clip8">
  <path d="M 18.773438 11.113281 C 16.527344 11.113281 14.414062 11.996094 12.824219 13.605469 C 11.234375 15.210938 10.359375 17.347656 10.359375 19.621094 C 10.359375 21.894531 11.234375 24.03125 12.824219 25.640625 C 14.414062 27.246094 16.527344 28.132812 18.773438 28.132812 C 21.019531 28.132812 23.132812 27.246094 24.722656 25.640625 C 26.3125 24.03125 27.1875 21.894531 27.1875 19.621094 C 27.1875 17.347656 26.3125 15.210938 24.722656 13.605469 C 23.132812 11.996094 21.019531 11.113281 18.773438 11.113281 Z M 18.773438 28.085938 C 14.160156 28.085938 10.40625 24.289062 10.40625 19.621094 C 10.40625 14.957031 14.160156 11.160156 18.773438 11.160156 C 23.386719 11.160156 27.140625 14.957031 27.140625 19.621094 C 27.140625 24.289062 23.386719 28.085938 18.773438 28.085938 Z M 18.773438 28.085938 "/>
</clipPath>
<radialGradient id="radial3" gradientUnits="userSpaceOnUse" cx="-454.29199" cy="595.95038" fx="-454.29199" fy="595.95038" r="487.24591" gradientTransform="matrix(0.139102,0,0,0.140713,48.344746,-44.918441)">
<stop offset="0" style="stop-color:rgb(29.803922%,25.098039%,60%);stop-opacity:1;"/>
<stop offset="1" style="stop-color:rgb(49.019608%,8.235294%,60.784314%);stop-opacity:1;"/>
</radialGradient>
<clipPath id="clip9">
  <path d="M 9 9 L 28 9 L 28 28 L 9 28 Z M 9 9 "/>
</clipPath>
<clipPath id="clip10">
  <path d="M 18.789062 9.757812 C 16.417969 9.757812 14.191406 10.691406 12.515625 12.386719 C 10.835938 14.082031 9.914062 16.335938 9.914062 18.734375 C 9.914062 21.132812 10.839844 23.386719 12.515625 25.082031 C 14.191406 26.777344 16.417969 27.710938 18.789062 27.710938 C 21.160156 27.710938 23.386719 26.777344 25.0625 25.082031 C 26.742188 23.386719 27.664062 21.132812 27.664062 18.734375 C 27.664062 16.339844 26.742188 14.082031 25.0625 12.386719 C 23.386719 10.691406 21.160156 9.757812 18.789062 9.757812 Z M 18.789062 27.441406 C 14.042969 27.441406 10.183594 23.535156 10.183594 18.734375 C 10.183594 13.9375 14.042969 10.03125 18.789062 10.03125 C 23.535156 10.03125 27.394531 13.9375 27.394531 18.734375 C 27.394531 23.535156 23.535156 27.441406 18.789062 27.441406 Z M 18.789062 27.441406 "/>
</clipPath>
<radialGradient id="radial4" gradientUnits="userSpaceOnUse" cx="-454.293" cy="595.95239" fx="-454.293" fy="595.95239" r="487.24921" gradientTransform="matrix(0.139102,0,0,0.140713,48.344746,-44.918441)">
<stop offset="0" style="stop-color:rgb(29.803922%,25.098039%,60%);stop-opacity:1;"/>
<stop offset="1" style="stop-color:rgb(49.019608%,8.235294%,60.784314%);stop-opacity:1;"/>
</radialGradient>
<clipPath id="clip11">
  <path d="M 10 9 L 29 9 L 29 29 L 10 29 Z M 10 9 "/>
</clipPath>
<clipPath id="clip12">
  <path d="M 19.164062 9.800781 C 16.730469 9.800781 14.441406 10.757812 12.722656 12.5 C 11 14.242188 10.054688 16.554688 10.054688 19.015625 C 10.054688 21.476562 11 23.792969 12.722656 25.53125 C 14.441406 27.273438 16.730469 28.230469 19.164062 28.230469 C 21.597656 28.230469 23.882812 27.273438 25.605469 25.53125 C 27.324219 23.792969 28.273438 21.476562 28.273438 19.015625 C 28.273438 16.554688 27.324219 14.242188 25.605469 12.5 C 23.882812 10.757812 21.597656 9.800781 19.164062 9.800781 Z M 19.164062 28.1875 C 14.164062 28.1875 10.097656 24.070312 10.097656 19.015625 C 10.097656 13.960938 14.164062 9.847656 19.164062 9.847656 C 24.160156 9.847656 28.226562 13.960938 28.226562 19.015625 C 28.226562 24.070312 24.160156 28.1875 19.164062 28.1875 Z M 19.164062 28.1875 "/>
</clipPath>
<radialGradient id="radial5" gradientUnits="userSpaceOnUse" cx="-454.2959" cy="595.95428" fx="-454.2959" fy="595.95428" r="487.25711" gradientTransform="matrix(0.139102,0,0,0.140713,48.344746,-44.918441)">
<stop offset="0" style="stop-color:rgb(29.803922%,25.098039%,60%);stop-opacity:1;"/>
<stop offset="1" style="stop-color:rgb(49.019608%,8.235294%,60.784314%);stop-opacity:1;"/>
</radialGradient>
<clipPath id="clip13">
  <path d="M 9 9 L 30 9 L 30 30 L 9 30 Z M 9 9 "/>
</clipPath>
<clipPath id="clip14">
  <path d="M 19.40625 9.023438 C 16.648438 9.023438 14.058594 10.113281 12.109375 12.082031 C 10.160156 14.054688 9.085938 16.675781 9.085938 19.464844 C 9.085938 22.253906 10.160156 24.875 12.109375 26.847656 C 14.058594 28.820312 16.648438 29.902344 19.40625 29.902344 C 22.164062 29.902344 24.753906 28.816406 26.703125 26.847656 C 28.652344 24.875 29.726562 22.253906 29.726562 19.464844 C 29.726562 16.675781 28.652344 14.054688 26.703125 12.082031 C 24.753906 10.109375 22.164062 9.023438 19.40625 9.023438 Z M 19.40625 29.515625 C 13.929688 29.515625 9.472656 25.003906 9.472656 19.464844 C 9.472656 13.925781 13.929688 9.417969 19.40625 9.417969 C 24.882812 9.417969 29.339844 13.925781 29.339844 19.464844 C 29.339844 25.003906 24.882812 29.515625 19.40625 29.515625 Z M 19.40625 29.515625 "/>
</clipPath>
<radialGradient id="radial6" gradientUnits="userSpaceOnUse" cx="-454.29489" cy="595.95142" fx="-454.29489" fy="595.95142" r="487.25241" gradientTransform="matrix(0.139102,0,0,0.140713,48.344746,-44.918441)">
<stop offset="0" style="stop-color:rgb(29.803922%,25.098039%,60%);stop-opacity:1;"/>
<stop offset="1" style="stop-color:rgb(49.019608%,8.235294%,60.784314%);stop-opacity:1;"/>
</radialGradient>
<clipPath id="clip15">
  <path d="M 9 9 L 31 9 L 31 32 L 9 32 Z M 9 9 "/>
</clipPath>
<clipPath id="clip16">
  <path d="M 24.152344 10.726562 C 22.839844 10.164062 21.449219 9.878906 20.011719 9.878906 C 18.578125 9.878906 17.183594 10.164062 15.871094 10.726562 C 14.605469 11.269531 13.46875 12.042969 12.492188 13.03125 C 11.515625 14.019531 10.75 15.167969 10.210938 16.449219 C 9.65625 17.777344 9.375 19.1875 9.375 20.640625 C 9.375 22.089844 9.65625 23.5 10.210938 24.828125 C 10.75 26.109375 11.515625 27.257812 12.492188 28.246094 C 13.46875 29.234375 14.605469 30.011719 15.871094 30.550781 C 17.183594 31.113281 18.578125 31.398438 20.011719 31.398438 C 21.449219 31.398438 22.839844 31.113281 24.152344 30.550781 C 25.417969 30.011719 26.554688 29.234375 27.53125 28.246094 C 28.507812 27.257812 29.277344 26.109375 29.8125 24.828125 C 30.367188 23.5 30.648438 22.089844 30.648438 20.640625 C 30.648438 19.1875 30.367188 17.777344 29.8125 16.449219 C 29.277344 15.167969 28.507812 14.019531 27.53125 13.03125 C 26.554688 12.042969 25.417969 11.269531 24.152344 10.726562 Z M 29.835938 20.640625 C 29.835938 26.121094 25.429688 30.578125 20.011719 30.578125 C 14.59375 30.578125 10.1875 26.121094 10.1875 20.640625 C 10.1875 15.160156 14.59375 10.699219 20.011719 10.699219 C 25.429688 10.699219 29.835938 15.160156 29.835938 20.640625 Z M 29.835938 20.640625 "/>
</clipPath>
<radialGradient id="radial7" gradientUnits="userSpaceOnUse" cx="-454.29541" cy="595.95142" fx="-454.29541" fy="595.95142" r="487.2525" gradientTransform="matrix(0.139102,0,0,0.140713,48.344746,-44.918441)">
<stop offset="0" style="stop-color:rgb(29.803922%,25.098039%,60%);stop-opacity:1;"/>
<stop offset="1" style="stop-color:rgb(49.019608%,8.235294%,60.784314%);stop-opacity:1;"/>
</radialGradient>
<clipPath id="clip17">
  <path d="M 8 8 L 31 8 L 31 31 L 8 31 Z M 8 8 "/>
</clipPath>
<clipPath id="clip18">
  <path d="M 23.902344 9.246094 C 22.570312 8.675781 21.160156 8.390625 19.703125 8.390625 C 18.25 8.390625 16.835938 8.675781 15.507812 9.246094 C 14.226562 9.796875 13.074219 10.582031 12.082031 11.582031 C 11.09375 12.582031 10.316406 13.75 9.773438 15.050781 C 9.210938 16.394531 8.925781 17.820312 8.925781 19.292969 C 8.925781 20.765625 9.210938 22.191406 9.773438 23.539062 C 10.316406 24.835938 11.09375 26.003906 12.082031 27.003906 C 13.074219 28.003906 14.226562 28.792969 15.507812 29.339844 C 16.839844 29.910156 18.25 30.199219 19.703125 30.199219 C 21.160156 30.199219 22.570312 29.910156 23.902344 29.339844 C 25.183594 28.792969 26.335938 28.003906 27.328125 27.003906 C 28.316406 26.003906 29.09375 24.835938 29.636719 23.539062 C 30.199219 22.195312 30.484375 20.765625 30.484375 19.292969 C 30.484375 17.820312 30.199219 16.394531 29.636719 15.050781 C 29.09375 13.75 28.316406 12.582031 27.328125 11.582031 C 26.335938 10.582031 25.183594 9.796875 23.902344 9.246094 Z M 30.4375 19.292969 C 30.4375 25.28125 25.625 30.152344 19.703125 30.152344 C 13.785156 30.152344 8.96875 25.28125 8.96875 19.292969 C 8.96875 13.304688 13.785156 8.433594 19.703125 8.433594 C 25.625 8.433594 30.4375 13.304688 30.4375 19.292969 Z M 30.4375 19.292969 "/>
</clipPath>
<radialGradient id="radial8" gradientUnits="userSpaceOnUse" cx="-454.2959" cy="595.95239" fx="-454.2959" fy="595.95239" r="487.25601" gradientTransform="matrix(0.139102,0,0,0.140713,48.344746,-44.918441)">
<stop offset="0" style="stop-color:rgb(29.803922%,25.098039%,60%);stop-opacity:1;"/>
<stop offset="1" style="stop-color:rgb(49.019608%,8.235294%,60.784314%);stop-opacity:1;"/>
</radialGradient>
<clipPath id="clip19">
  <path d="M 7 8 L 30 8 L 30 31 L 7 31 Z M 7 8 "/>
</clipPath>
<clipPath id="clip20">
  <path d="M 23.230469 9.429688 C 21.863281 8.847656 20.414062 8.550781 18.921875 8.550781 C 17.429688 8.550781 15.980469 8.847656 14.613281 9.429688 C 13.296875 9.992188 12.113281 10.800781 11.097656 11.828125 C 10.082031 12.855469 9.285156 14.054688 8.726562 15.386719 C 8.148438 16.765625 7.855469 18.230469 7.855469 19.742188 C 7.855469 21.253906 8.148438 22.71875 8.726562 24.097656 C 9.285156 25.433594 10.082031 26.628906 11.097656 27.65625 C 12.113281 28.683594 13.296875 29.492188 14.613281 30.054688 C 15.980469 30.640625 17.429688 30.933594 18.921875 30.933594 C 20.414062 30.933594 21.863281 30.640625 23.230469 30.054688 C 24.546875 29.492188 25.730469 28.683594 26.746094 27.65625 C 27.761719 26.628906 28.558594 25.433594 29.117188 24.097656 C 29.695312 22.71875 29.988281 21.253906 29.988281 19.742188 C 29.988281 18.230469 29.695312 16.765625 29.117188 15.386719 C 28.558594 14.054688 27.761719 12.855469 26.746094 11.828125 C 25.730469 10.800781 24.546875 9.992188 23.230469 9.429688 Z M 29.898438 19.742188 C 29.898438 25.863281 24.972656 30.84375 18.921875 30.84375 C 12.871094 30.84375 7.945312 25.863281 7.945312 19.742188 C 7.945312 13.621094 12.871094 8.640625 18.921875 8.640625 C 24.972656 8.640625 29.898438 13.621094 29.898438 19.742188 Z M 29.898438 19.742188 "/>
</clipPath>
<radialGradient id="radial9" gradientUnits="userSpaceOnUse" cx="-454.29541" cy="595.95343" fx="-454.29541" fy="595.95343" r="487.25641" gradientTransform="matrix(0.139102,0,0,0.140713,48.344746,-44.918441)">
<stop offset="0" style="stop-color:rgb(29.803922%,25.098039%,60%);stop-opacity:1;"/>
<stop offset="1" style="stop-color:rgb(49.019608%,8.235294%,60.784314%);stop-opacity:1;"/>
</radialGradient>
<clipPath id="clip21">
  <path d="M 7 9 L 32 9 L 32 33 L 7 33 Z M 7 9 "/>
</clipPath>
<clipPath id="clip22">
  <path d="M 30.355469 16.335938 C 29.757812 14.914062 28.90625 13.636719 27.824219 12.539062 C 26.738281 11.441406 25.472656 10.578125 24.066406 9.976562 C 22.609375 9.351562 21.0625 9.035156 19.46875 9.035156 C 17.871094 9.035156 16.324219 9.351562 14.867188 9.976562 C 13.460938 10.578125 12.199219 11.441406 11.113281 12.539062 C 10.027344 13.636719 9.175781 14.914062 8.582031 16.335938 C 7.964844 17.808594 7.652344 19.375 7.652344 20.988281 C 7.652344 22.601562 7.964844 24.167969 8.582031 25.640625 C 9.175781 27.066406 10.027344 28.34375 11.113281 29.441406 C 12.199219 30.539062 13.460938 31.398438 14.867188 32 C 16.324219 32.625 17.871094 32.941406 19.46875 32.941406 C 21.0625 32.941406 22.609375 32.625 24.066406 32 C 25.472656 31.398438 26.738281 30.539062 27.824219 29.441406 C 28.90625 28.34375 29.757812 27.066406 30.355469 25.640625 C 30.972656 24.167969 31.285156 22.601562 31.285156 20.988281 C 31.285156 19.375 30.972656 17.808594 30.355469 16.335938 Z M 30.683594 20.988281 C 30.683594 27.246094 25.652344 32.332031 19.46875 32.332031 C 13.285156 32.332031 8.253906 27.246094 8.253906 20.988281 C 8.253906 14.734375 13.285156 9.644531 19.46875 9.644531 C 25.652344 9.644531 30.683594 14.734375 30.683594 20.988281 Z M 30.683594 20.988281 "/>
</clipPath>
<radialGradient id="radial10" gradientUnits="userSpaceOnUse" cx="-454.29791" cy="595.95239" fx="-454.29791" fy="595.95239" r="487.26059" gradientTransform="matrix(0.139102,0,0,0.140713,48.344746,-44.918441)">
<stop offset="0" style="stop-color:rgb(29.803922%,25.098039%,60%);stop-opacity:1;"/>
<stop offset="1" style="stop-color:rgb(49.019608%,8.235294%,60.784314%);stop-opacity:1;"/>
</radialGradient>
<clipPath id="clip23">
  <path d="M 5 7 L 32 7 L 32 33 L 5 33 Z M 5 7 "/>
</clipPath>
<clipPath id="clip24">
  <path d="M 30.347656 15.105469 C 29.710938 13.578125 28.792969 12.203125 27.628906 11.027344 C 26.464844 9.847656 25.105469 8.921875 23.59375 8.273438 C 22.027344 7.605469 20.367188 7.265625 18.652344 7.265625 C 16.9375 7.265625 15.277344 7.605469 13.710938 8.273438 C 12.199219 8.921875 10.84375 9.847656 9.675781 11.027344 C 8.511719 12.207031 7.59375 13.578125 6.957031 15.105469 C 6.292969 16.691406 5.957031 18.371094 5.957031 20.105469 C 5.957031 21.839844 6.292969 23.519531 6.957031 25.105469 C 7.597656 26.632812 8.511719 28.007812 9.675781 29.1875 C 10.84375 30.363281 12.199219 31.292969 13.710938 31.9375 C 15.277344 32.605469 16.9375 32.945312 18.652344 32.945312 C 20.367188 32.945312 22.027344 32.605469 23.59375 31.9375 C 25.105469 31.292969 26.464844 30.363281 27.628906 29.1875 C 28.792969 28.007812 29.710938 26.632812 30.347656 25.105469 C 31.011719 23.519531 31.347656 21.839844 31.347656 20.105469 C 31.347656 18.371094 31.011719 16.691406 30.347656 15.105469 Z M 18.652344 32.21875 C 12.050781 32.21875 6.679688 26.785156 6.679688 20.105469 C 6.679688 13.425781 12.050781 7.992188 18.652344 7.992188 C 25.257812 7.992188 30.628906 13.425781 30.628906 20.105469 C 30.628906 26.785156 25.253906 32.21875 18.652344 32.21875 Z M 18.652344 32.21875 "/>
</clipPath>
<radialGradient id="radial11" gradientUnits="userSpaceOnUse" cx="-454.29251" cy="595.95239" fx="-454.29251" fy="595.95239" r="487.25491" gradientTransform="matrix(0.139102,0,0,0.140713,48.344746,-44.918441)">
<stop offset="0" style="stop-color:rgb(29.803922%,25.098039%,60%);stop-opacity:1;"/>
<stop offset="1" style="stop-color:rgb(49.019608%,8.235294%,60.784314%);stop-opacity:1;"/>
</radialGradient>
<clipPath id="clip25">
  <path d="M 5 6 L 32 6 L 32 33 L 5 33 Z M 5 6 "/>
</clipPath>
<clipPath id="clip26">
  <path d="M 30.675781 14.796875 C 30.023438 13.238281 29.089844 11.839844 27.902344 10.640625 C 26.714844 9.4375 25.332031 8.496094 23.792969 7.835938 C 22.199219 7.15625 20.507812 6.808594 18.761719 6.808594 C 17.015625 6.808594 15.324219 7.15625 13.730469 7.835938 C 12.191406 8.496094 10.808594 9.4375 9.621094 10.640625 C 8.433594 11.839844 7.5 13.238281 6.851562 14.796875 C 6.175781 16.410156 5.835938 18.121094 5.835938 19.886719 C 5.835938 21.652344 6.175781 23.363281 6.851562 24.976562 C 7.5 26.535156 8.433594 27.933594 9.621094 29.132812 C 10.808594 30.335938 12.191406 31.277344 13.730469 31.9375 C 15.324219 32.617188 17.015625 32.964844 18.761719 32.964844 C 20.507812 32.964844 22.199219 32.617188 23.792969 31.9375 C 25.332031 31.277344 26.714844 30.335938 27.902344 29.132812 C 29.089844 27.933594 30.023438 26.535156 30.675781 24.976562 C 31.347656 23.363281 31.691406 21.652344 31.691406 19.886719 C 31.691406 18.121094 31.347656 16.410156 30.675781 14.796875 Z M 18.761719 32.828125 C 11.707031 32.828125 5.96875 27.023438 5.96875 19.886719 C 5.96875 12.75 11.707031 6.945312 18.761719 6.945312 C 25.816406 6.945312 31.554688 12.75 31.554688 19.886719 C 31.554688 27.023438 25.816406 32.828125 18.761719 32.828125 Z M 18.761719 32.828125 "/>
</clipPath>
<radialGradient id="radial12" gradientUnits="userSpaceOnUse" cx="-454.2959" cy="595.95343" fx="-454.2959" fy="595.95343" r="487.2554" gradientTransform="matrix(0.139102,0,0,0.140713,48.344746,-44.918441)">
<stop offset="0" style="stop-color:rgb(29.803922%,25.098039%,60%);stop-opacity:1;"/>
<stop offset="1" style="stop-color:rgb(49.019608%,8.235294%,60.784314%);stop-opacity:1;"/>
</radialGradient>
<clipPath id="clip27">
  <path d="M 5 6 L 33 6 L 33 34 L 5 34 Z M 5 6 "/>
</clipPath>
<clipPath id="clip28">
  <path d="M 31.773438 14.769531 C 31.085938 13.125 30.101562 11.648438 28.847656 10.378906 C 27.59375 9.113281 26.132812 8.117188 24.507812 7.417969 C 22.824219 6.699219 21.035156 6.335938 19.191406 6.335938 C 17.347656 6.335938 15.558594 6.699219 13.875 7.417969 C 12.25 8.117188 10.789062 9.113281 9.535156 10.378906 C 8.28125 11.648438 7.296875 13.125 6.609375 14.769531 C 5.894531 16.472656 5.535156 18.285156 5.535156 20.148438 C 5.535156 22.011719 5.894531 23.820312 6.609375 25.523438 C 7.296875 27.171875 8.28125 28.648438 9.535156 29.914062 C 10.789062 31.183594 12.25 32.179688 13.875 32.875 C 15.558594 33.597656 17.347656 33.960938 19.191406 33.960938 C 21.035156 33.960938 22.824219 33.597656 24.507812 32.875 C 26.132812 32.179688 27.59375 31.183594 28.847656 29.914062 C 30.101562 28.648438 31.085938 27.171875 31.773438 25.523438 C 32.484375 23.820312 32.847656 22.011719 32.847656 20.148438 C 32.847656 18.285156 32.484375 16.472656 31.773438 14.769531 Z M 19.191406 33.417969 C 11.957031 33.417969 6.074219 27.464844 6.074219 20.148438 C 6.074219 12.832031 11.957031 6.878906 19.191406 6.878906 C 26.421875 6.878906 32.308594 12.832031 32.308594 20.148438 C 32.308594 27.464844 26.421875 33.417969 19.191406 33.417969 Z M 19.191406 33.417969 "/>
</clipPath>
<radialGradient id="radial13" gradientUnits="userSpaceOnUse" cx="-454.29639" cy="595.95038" fx="-454.29639" fy="595.95038" r="487.48471" gradientTransform="matrix(0.139102,0,0,0.140713,48.344746,-44.918441)">
<stop offset="0" style="stop-color:rgb(29.803922%,25.098039%,60%);stop-opacity:1;"/>
<stop offset="1" style="stop-color:rgb(49.019608%,8.235294%,60.784314%);stop-opacity:1;"/>
</radialGradient>
<clipPath id="clip29">
  <path d="M 5 5 L 33 5 L 33 35 L 5 35 Z M 5 5 "/>
</clipPath>
<clipPath id="clip30">
  <path d="M 31.886719 14.515625 C 31.183594 12.832031 30.175781 11.320312 28.890625 10.023438 C 27.609375 8.722656 26.113281 7.703125 24.449219 6.992188 C 22.722656 6.253906 20.894531 5.878906 19.007812 5.878906 C 17.117188 5.878906 15.289062 6.253906 13.566406 6.992188 C 11.898438 7.703125 10.40625 8.722656 9.121094 10.023438 C 7.835938 11.320312 6.828125 12.832031 6.125 14.515625 C 5.394531 16.261719 5.027344 18.113281 5.027344 20.023438 C 5.027344 21.929688 5.394531 23.78125 6.125 25.527344 C 6.828125 27.210938 7.835938 28.722656 9.121094 30.019531 C 10.40625 31.320312 11.898438 32.339844 13.566406 33.050781 C 15.289062 33.789062 17.121094 34.164062 19.007812 34.164062 C 20.894531 34.164062 22.722656 33.789062 24.449219 33.050781 C 26.113281 32.339844 27.605469 31.320312 28.890625 30.019531 C 30.175781 28.722656 31.183594 27.210938 31.886719 25.527344 C 32.617188 23.78125 32.984375 21.929688 32.984375 20.023438 C 32.984375 18.113281 32.617188 16.261719 31.886719 14.515625 Z M 19.007812 34.027344 C 11.371094 34.027344 5.160156 27.742188 5.160156 20.023438 C 5.160156 12.300781 11.371094 6.015625 19.007812 6.015625 C 26.640625 6.015625 32.851562 12.300781 32.851562 20.023438 C 32.851562 27.742188 26.640625 34.027344 19.007812 34.027344 Z M 19.007812 34.027344 "/>
</clipPath>
<radialGradient id="radial14" gradientUnits="userSpaceOnUse" cx="-454.29349" cy="595.95239" fx="-454.29349" fy="595.95239" r="487.25351" gradientTransform="matrix(0.139102,0,0,0.140713,48.344746,-44.918441)">
<stop offset="0" style="stop-color:rgb(29.803922%,25.098039%,60%);stop-opacity:1;"/>
<stop offset="1" style="stop-color:rgb(49.019608%,8.235294%,60.784314%);stop-opacity:1;"/>
</radialGradient>
<clipPath id="clip31">
  <path d="M 5 4 L 35 4 L 35 34 L 5 34 Z M 5 4 "/>
</clipPath>
<clipPath id="clip32">
  <path d="M 32.972656 13.144531 C 32.257812 11.433594 31.230469 9.894531 29.925781 8.574219 C 28.621094 7.253906 27.097656 6.214844 25.40625 5.492188 C 23.652344 4.742188 21.789062 4.359375 19.871094 4.359375 C 17.953125 4.359375 16.089844 4.742188 14.335938 5.492188 C 12.644531 6.214844 11.121094 7.253906 9.816406 8.574219 C 8.511719 9.894531 7.484375 11.433594 6.769531 13.144531 C 6.027344 14.917969 5.652344 16.800781 5.652344 18.746094 C 5.652344 20.6875 6.027344 22.570312 6.769531 24.34375 C 7.484375 26.058594 8.511719 27.59375 9.816406 28.914062 C 11.121094 30.238281 12.644531 31.273438 14.335938 32 C 16.089844 32.75 17.953125 33.128906 19.871094 33.128906 C 21.789062 33.128906 23.652344 32.75 25.40625 32 C 27.101562 31.273438 28.621094 30.238281 29.925781 28.914062 C 31.230469 27.59375 32.257812 26.058594 32.972656 24.34375 C 33.714844 22.570312 34.089844 20.6875 34.089844 18.746094 C 34.089844 16.800781 33.714844 14.917969 32.972656 13.144531 Z M 19.871094 33.039062 C 12.078125 33.039062 5.742188 26.625 5.742188 18.746094 C 5.742188 10.863281 12.078125 4.449219 19.871094 4.449219 C 27.664062 4.449219 34 10.863281 34 18.746094 C 34 26.625 27.664062 33.039062 19.871094 33.039062 Z M 19.871094 33.039062 "/>
</clipPath>
<radialGradient id="radial15" gradientUnits="userSpaceOnUse" cx="-454.29791" cy="595.95038" fx="-454.29791" fy="595.95038" r="487.26151" gradientTransform="matrix(0.139102,0,0,0.140713,48.344746,-44.918441)">
<stop offset="0" style="stop-color:rgb(29.803922%,25.098039%,60%);stop-opacity:1;"/>
<stop offset="1" style="stop-color:rgb(49.019608%,8.235294%,60.784314%);stop-opacity:1;"/>
</radialGradient>
<clipPath id="clip33">
  <path d="M 5 5 L 36 5 L 36 37 L 5 37 Z M 5 5 "/>
</clipPath>
<clipPath id="clip34">
  <path d="M 34.425781 14.851562 C 33.667969 13.035156 32.582031 11.40625 31.199219 10.007812 C 29.816406 8.609375 28.203125 7.511719 26.410156 6.742188 C 24.554688 5.949219 22.582031 5.546875 20.546875 5.546875 C 18.515625 5.546875 16.542969 5.949219 14.6875 6.742188 C 12.890625 7.511719 11.28125 8.609375 9.898438 10.007812 C 8.515625 11.40625 7.429688 13.035156 6.671875 14.851562 C 5.886719 16.730469 5.488281 18.726562 5.488281 20.78125 C 5.488281 22.839844 5.886719 24.832031 6.671875 26.710938 C 7.429688 28.527344 8.515625 30.15625 9.898438 31.554688 C 11.28125 32.953125 12.890625 34.050781 14.6875 34.820312 C 16.542969 35.613281 18.515625 36.015625 20.546875 36.015625 C 22.582031 36.015625 24.554688 35.613281 26.410156 34.820312 C 28.203125 34.050781 29.816406 32.953125 31.199219 31.554688 C 32.582031 30.15625 33.667969 28.527344 34.425781 26.710938 C 35.210938 24.832031 35.609375 22.839844 35.609375 20.78125 C 35.609375 18.726562 35.210938 16.730469 34.425781 14.851562 Z M 20.546875 35.289062 C 12.640625 35.289062 6.207031 28.78125 6.207031 20.78125 C 6.207031 12.78125 12.640625 6.273438 20.546875 6.273438 C 28.457031 6.273438 34.890625 12.78125 34.890625 20.78125 C 34.890625 28.78125 28.457031 35.289062 20.546875 35.289062 Z M 20.546875 35.289062 "/>
</clipPath>
<radialGradient id="radial16" gradientUnits="userSpaceOnUse" cx="-454.2944" cy="595.95343" fx="-454.2944" fy="595.95343" r="487.25531" gradientTransform="matrix(0.139102,0,0,0.140713,48.344746,-44.918441)">
<stop offset="0" style="stop-color:rgb(29.803922%,25.098039%,60%);stop-opacity:1;"/>
<stop offset="1" style="stop-color:rgb(49.019608%,8.235294%,60.784314%);stop-opacity:1;"/>
</radialGradient>
<clipPath id="clip35">
  <path d="M 5 4 L 37 4 L 37 36 L 5 36 Z M 5 4 "/>
</clipPath>
<clipPath id="clip36">
  <path d="M 35.097656 13.808594 C 34.328125 11.96875 33.226562 10.316406 31.824219 8.898438 C 30.421875 7.480469 28.789062 6.363281 26.96875 5.585938 C 25.085938 4.78125 23.085938 4.371094 21.023438 4.371094 C 18.964844 4.371094 16.960938 4.78125 15.082031 5.585938 C 13.261719 6.363281 11.628906 7.480469 10.226562 8.898438 C 8.824219 10.316406 7.722656 11.96875 6.953125 13.808594 C 6.15625 15.710938 5.753906 17.734375 5.753906 19.820312 C 5.753906 21.90625 6.15625 23.929688 6.953125 25.835938 C 7.722656 27.675781 8.824219 29.328125 10.226562 30.746094 C 11.628906 32.164062 13.261719 33.277344 15.082031 34.054688 C 16.964844 34.863281 18.964844 35.269531 21.023438 35.269531 C 23.085938 35.269531 25.085938 34.863281 26.96875 34.054688 C 28.789062 33.277344 30.421875 32.164062 31.824219 30.746094 C 33.226562 29.328125 34.328125 27.675781 35.097656 25.835938 C 35.890625 23.929688 36.296875 21.90625 36.296875 19.820312 C 36.296875 17.734375 35.890625 15.710938 35.097656 13.808594 Z M 21.023438 35.179688 C 12.652344 35.179688 5.84375 28.289062 5.84375 19.820312 C 5.84375 11.351562 12.652344 4.464844 21.023438 4.464844 C 29.394531 4.464844 36.207031 11.355469 36.207031 19.820312 C 36.207031 28.289062 29.394531 35.179688 21.023438 35.179688 Z M 21.023438 35.179688 "/>
</clipPath>
<radialGradient id="radial17" gradientUnits="userSpaceOnUse" cx="-454.29691" cy="595.95239" fx="-454.29691" fy="595.95239" r="487.25781" gradientTransform="matrix(0.139102,0,0,0.140713,48.344746,-44.918441)">
<stop offset="0" style="stop-color:rgb(29.803922%,25.098039%,60%);stop-opacity:1;"/>
<stop offset="1" style="stop-color:rgb(49.019608%,8.235294%,60.784314%);stop-opacity:1;"/>
</radialGradient>
<clipPath id="clip37">
  <path d="M 4 4 L 36 4 L 36 36 L 4 36 Z M 4 4 "/>
</clipPath>
<clipPath id="clip38">
  <path d="M 34.59375 13.863281 C 33.808594 11.980469 32.679688 10.292969 31.246094 8.839844 C 29.8125 7.386719 28.140625 6.25 26.28125 5.453125 C 24.351562 4.628906 22.304688 4.210938 20.195312 4.210938 C 18.085938 4.210938 16.042969 4.628906 14.113281 5.453125 C 12.253906 6.25 10.582031 7.386719 9.148438 8.839844 C 7.714844 10.292969 6.585938 11.980469 5.800781 13.863281 C 4.984375 15.8125 4.574219 17.882812 4.574219 20.015625 C 4.574219 22.148438 4.984375 24.21875 5.800781 26.167969 C 6.585938 28.050781 7.714844 29.742188 9.148438 31.191406 C 10.582031 32.644531 12.253906 33.785156 14.113281 34.578125 C 16.042969 35.402344 18.085938 35.820312 20.195312 35.820312 C 22.304688 35.820312 24.351562 35.402344 26.28125 34.578125 C 28.140625 33.785156 29.8125 32.644531 31.246094 31.191406 C 32.679688 29.742188 33.808594 28.050781 34.59375 26.167969 C 35.410156 24.21875 35.820312 22.148438 35.820312 20.015625 C 35.820312 17.882812 35.410156 15.8125 34.59375 13.863281 Z M 20.195312 35.546875 C 11.730469 35.546875 4.84375 28.582031 4.84375 20.015625 C 4.84375 11.453125 11.730469 4.484375 20.195312 4.484375 C 28.664062 4.484375 35.550781 11.453125 35.550781 20.015625 C 35.550781 28.582031 28.664062 35.546875 20.195312 35.546875 Z M 20.195312 35.546875 "/>
</clipPath>
<radialGradient id="radial18" gradientUnits="userSpaceOnUse" cx="-454.293" cy="595.95343" fx="-454.293" fy="595.95343" r="487.25311" gradientTransform="matrix(0.139102,0,0,0.140713,48.344746,-44.918441)">
<stop offset="0" style="stop-color:rgb(29.803922%,25.098039%,60%);stop-opacity:1;"/>
<stop offset="1" style="stop-color:rgb(49.019608%,8.235294%,60.784314%);stop-opacity:1;"/>
</radialGradient>
<clipPath id="clip39">
  <path d="M 4 4 L 37 4 L 37 38 L 4 38 Z M 4 4 "/>
</clipPath>
<clipPath id="clip40">
  <path d="M 35.675781 14.519531 C 34.855469 12.558594 33.683594 10.796875 32.1875 9.285156 C 30.691406 7.769531 28.949219 6.582031 27.011719 5.753906 C 25.003906 4.894531 22.871094 4.457031 20.671875 4.457031 C 18.472656 4.457031 16.339844 4.894531 14.332031 5.753906 C 12.390625 6.582031 10.652344 7.769531 9.15625 9.285156 C 7.660156 10.796875 6.484375 12.558594 5.664062 14.519531 C 4.816406 16.550781 4.386719 18.707031 4.386719 20.933594 C 4.386719 23.15625 4.816406 25.3125 5.664062 27.34375 C 6.484375 29.304688 7.660156 31.070312 9.15625 32.582031 C 10.652344 34.09375 12.390625 35.28125 14.332031 36.113281 C 16.339844 36.96875 18.472656 37.40625 20.671875 37.40625 C 22.867188 37.40625 25.003906 36.96875 27.011719 36.113281 C 28.949219 35.28125 30.691406 34.09375 32.1875 32.582031 C 33.683594 31.070312 34.855469 29.304688 35.675781 27.34375 C 36.523438 25.3125 36.957031 23.15625 36.957031 20.933594 C 36.957031 18.707031 36.527344 16.550781 35.675781 14.519531 Z M 20.671875 36.859375 C 11.988281 36.859375 4.925781 29.714844 4.925781 20.933594 C 4.925781 12.148438 11.988281 5.003906 20.671875 5.003906 C 29.351562 5.003906 36.417969 12.148438 36.417969 20.933594 C 36.417969 29.714844 29.351562 36.859375 20.671875 36.859375 Z M 20.671875 36.859375 "/>
</clipPath>
<radialGradient id="radial19" gradientUnits="userSpaceOnUse" cx="-454.29639" cy="595.95239" fx="-454.29639" fy="595.95239" r="487.25919" gradientTransform="matrix(0.139102,0,0,0.140713,48.344746,-44.918441)">
<stop offset="0" style="stop-color:rgb(29.803922%,25.098039%,60%);stop-opacity:1;"/>
<stop offset="1" style="stop-color:rgb(49.019608%,8.235294%,60.784314%);stop-opacity:1;"/>
</radialGradient>
<clipPath id="clip41">
  <path d="M 3 1 L 37 1 L 37 36 L 3 36 Z M 3 1 "/>
</clipPath>
<clipPath id="clip42">
  <path d="M 35.230469 12.175781 C 34.394531 10.171875 33.195312 8.371094 31.667969 6.828125 C 30.140625 5.28125 28.363281 4.070312 26.382812 3.222656 C 24.332031 2.34375 22.152344 1.898438 19.90625 1.898438 C 17.664062 1.898438 15.484375 2.34375 13.433594 3.222656 C 11.453125 4.070312 9.675781 5.28125 8.148438 6.828125 C 6.621094 8.371094 5.421875 10.171875 4.582031 12.175781 C 3.714844 14.25 3.277344 16.453125 3.277344 18.722656 C 3.277344 20.992188 3.714844 23.199219 4.582031 25.269531 C 5.421875 27.273438 6.621094 29.074219 8.148438 30.617188 C 9.675781 32.164062 11.453125 33.378906 13.433594 34.222656 C 15.484375 35.101562 17.664062 35.546875 19.90625 35.546875 C 22.152344 35.546875 24.332031 35.101562 26.382812 34.222656 C 28.363281 33.378906 30.140625 32.164062 31.667969 30.617188 C 33.195312 29.074219 34.394531 27.273438 35.230469 25.269531 C 36.097656 23.199219 36.539062 20.992188 36.539062 18.722656 C 36.539062 16.453125 36.097656 14.25 35.230469 12.175781 Z M 19.90625 35.363281 C 10.835938 35.363281 3.457031 27.898438 3.457031 18.722656 C 3.457031 9.546875 10.835938 2.082031 19.90625 2.082031 C 28.980469 2.082031 36.359375 9.546875 36.359375 18.722656 C 36.359375 27.898438 28.980469 35.363281 19.90625 35.363281 Z M 19.90625 35.363281 "/>
</clipPath>
<radialGradient id="radial20" gradientUnits="userSpaceOnUse" cx="-454.29489" cy="595.95142" fx="-454.29489" fy="595.95142" r="487.25381" gradientTransform="matrix(0.139102,0,0,0.140713,48.344746,-44.918441)">
<stop offset="0" style="stop-color:rgb(29.803922%,25.098039%,60%);stop-opacity:1;"/>
<stop offset="1" style="stop-color:rgb(49.019608%,8.235294%,60.784314%);stop-opacity:1;"/>
</radialGradient>
<clipPath id="clip43">
  <path d="M 4 3 L 36 3 L 36 35 L 4 35 Z M 4 3 "/>
</clipPath>
<clipPath id="clip44">
  <path d="M 34.398438 12.699219 C 33.609375 10.816406 32.480469 9.125 31.046875 7.671875 C 29.609375 6.21875 27.9375 5.078125 26.074219 4.28125 C 24.144531 3.453125 22.09375 3.035156 19.984375 3.035156 C 17.871094 3.035156 15.824219 3.453125 13.894531 4.28125 C 12.03125 5.078125 10.359375 6.21875 8.921875 7.671875 C 7.484375 9.125 6.355469 10.816406 5.566406 12.699219 C 4.753906 14.652344 4.339844 16.726562 4.339844 18.863281 C 4.339844 20.996094 4.753906 23.070312 5.566406 25.019531 C 6.355469 26.90625 7.484375 28.597656 8.921875 30.050781 C 10.355469 31.503906 12.03125 32.644531 13.894531 33.441406 C 15.824219 34.269531 17.871094 34.6875 19.984375 34.6875 C 22.09375 34.6875 24.144531 34.269531 26.074219 33.441406 C 27.933594 32.644531 29.609375 31.503906 31.042969 30.050781 C 32.480469 28.597656 33.609375 26.90625 34.398438 25.019531 C 35.214844 23.070312 35.625 20.996094 35.625 18.863281 C 35.625 16.726562 35.214844 14.652344 34.398438 12.699219 Z M 19.984375 34.113281 C 11.667969 34.113281 4.90625 27.269531 4.90625 18.863281 C 4.90625 10.453125 11.667969 3.609375 19.984375 3.609375 C 28.296875 3.609375 35.058594 10.453125 35.058594 18.863281 C 35.058594 27.269531 28.296875 34.113281 19.984375 34.113281 Z M 19.984375 34.113281 "/>
</clipPath>
<radialGradient id="radial21" gradientUnits="userSpaceOnUse" cx="-454.29391" cy="595.95343" fx="-454.29391" fy="595.95343" r="487.2547" gradientTransform="matrix(0.139102,0,0,0.140713,48.344746,-44.918441)">
<stop offset="0" style="stop-color:rgb(29.803922%,25.098039%,60%);stop-opacity:1;"/>
<stop offset="1" style="stop-color:rgb(49.019608%,8.235294%,60.784314%);stop-opacity:1;"/>
</radialGradient>
<clipPath id="clip45">
  <path d="M 3 1 L 39 1 L 39 38 L 3 38 Z M 3 1 "/>
</clipPath>
<clipPath id="clip46">
  <path d="M 37.164062 12.328125 C 36.277344 10.207031 35.007812 8.300781 33.386719 6.664062 C 31.769531 5.027344 29.886719 3.742188 27.789062 2.847656 C 25.617188 1.917969 23.308594 1.445312 20.933594 1.445312 C 18.554688 1.445312 16.246094 1.917969 14.074219 2.847656 C 11.976562 3.742188 10.09375 5.027344 8.476562 6.664062 C 6.859375 8.300781 5.585938 10.207031 4.699219 12.328125 C 3.78125 14.527344 3.316406 16.859375 3.316406 19.265625 C 3.316406 21.671875 3.78125 24.003906 4.699219 26.203125 C 5.585938 28.324219 6.859375 30.230469 8.476562 31.867188 C 10.09375 33.503906 11.976562 34.789062 14.074219 35.683594 C 16.246094 36.613281 18.554688 37.085938 20.933594 37.085938 C 23.308594 37.085938 25.617188 36.613281 27.789062 35.683594 C 29.886719 34.789062 31.769531 33.503906 33.386719 31.867188 C 35.007812 30.230469 36.277344 28.324219 37.164062 26.203125 C 38.082031 24.003906 38.546875 21.671875 38.546875 19.265625 C 38.546875 16.859375 38.082031 14.527344 37.164062 12.328125 Z M 20.933594 37.039062 C 11.242188 37.039062 3.359375 29.066406 3.359375 19.265625 C 3.359375 9.464844 11.242188 1.492188 20.933594 1.492188 C 30.621094 1.492188 38.503906 9.464844 38.503906 19.265625 C 38.503906 29.066406 30.621094 37.039062 20.933594 37.039062 Z M 20.933594 37.039062 "/>
</clipPath>
<radialGradient id="radial22" gradientUnits="userSpaceOnUse" cx="-454.2944" cy="595.95343" fx="-454.2944" fy="595.95343" r="487.2562" gradientTransform="matrix(0.139102,0,0,0.140713,48.344746,-44.918441)">
<stop offset="0" style="stop-color:rgb(29.803922%,25.098039%,60%);stop-opacity:1;"/>
<stop offset="1" style="stop-color:rgb(49.019608%,8.235294%,60.784314%);stop-opacity:1;"/>
</radialGradient>
<clipPath id="clip47">
  <path d="M 3 1 L 39 1 L 39 39 L 3 39 Z M 3 1 "/>
</clipPath>
<clipPath id="clip48">
  <path d="M 37.414062 12.851562 C 36.511719 10.695312 35.222656 8.757812 33.578125 7.09375 C 31.933594 5.433594 30.019531 4.125 27.886719 3.214844 C 25.679688 2.269531 23.335938 1.792969 20.917969 1.792969 C 18.503906 1.792969 16.15625 2.269531 13.953125 3.214844 C 11.820312 4.125 9.90625 5.433594 8.261719 7.09375 C 6.617188 8.757812 5.328125 10.695312 4.425781 12.851562 C 3.492188 15.082031 3.019531 17.457031 3.019531 19.898438 C 3.019531 22.34375 3.492188 24.714844 4.425781 26.949219 C 5.328125 29.105469 6.617188 31.042969 8.261719 32.703125 C 9.90625 34.367188 11.820312 35.671875 13.953125 36.585938 C 16.15625 37.53125 18.503906 38.007812 20.917969 38.007812 C 23.335938 38.007812 25.679688 37.53125 27.886719 36.585938 C 30.019531 35.671875 31.933594 34.367188 33.578125 32.703125 C 35.222656 31.039062 36.511719 29.105469 37.414062 26.949219 C 38.347656 24.714844 38.820312 22.34375 38.820312 19.898438 C 38.820312 17.457031 38.347656 15.082031 37.414062 12.851562 Z M 20.917969 37.917969 C 11.097656 37.917969 3.109375 29.835938 3.109375 19.898438 C 3.109375 9.964844 11.097656 1.882812 20.917969 1.882812 C 30.742188 1.882812 38.730469 9.964844 38.730469 19.898438 C 38.730469 29.835938 30.742188 37.917969 20.917969 37.917969 Z M 20.917969 37.917969 "/>
</clipPath>
<radialGradient id="radial23" gradientUnits="userSpaceOnUse" cx="-454.5459" cy="595.95239" fx="-454.5459" fy="595.95239" r="487.57141" gradientTransform="matrix(0.139102,0,0,0.140713,48.344746,-44.918441)">
<stop offset="0" style="stop-color:rgb(29.803922%,25.098039%,60%);stop-opacity:1;"/>
<stop offset="1" style="stop-color:rgb(49.019608%,8.235294%,60.784314%);stop-opacity:1;"/>
</radialGradient>
<clipPath id="clip49">
  <path d="M 1 1 L 39 1 L 39 39 L 1 39 Z M 1 1 "/>
</clipPath>
<clipPath id="clip50">
  <path d="M 36.9375 12.941406 C 36.019531 10.753906 34.710938 8.785156 33.039062 7.09375 C 31.367188 5.40625 29.421875 4.078125 27.257812 3.152344 C 25.015625 2.195312 22.632812 1.707031 20.179688 1.707031 C 17.722656 1.707031 15.339844 2.191406 13.097656 3.152344 C 10.933594 4.078125 8.988281 5.40625 7.320312 7.09375 C 5.648438 8.785156 4.335938 10.753906 3.421875 12.941406 C 2.472656 15.210938 1.992188 17.621094 1.992188 20.105469 C 1.992188 22.585938 2.472656 24.996094 3.421875 27.265625 C 4.335938 29.457031 5.648438 31.421875 7.320312 33.113281 C 8.988281 34.800781 10.933594 36.128906 13.101562 37.054688 C 15.34375 38.015625 17.722656 38.5 20.179688 38.5 C 22.632812 38.5 25.015625 38.015625 27.257812 37.054688 C 29.421875 36.128906 31.367188 34.800781 33.039062 33.113281 C 34.710938 31.421875 36.019531 29.457031 36.9375 27.265625 C 37.886719 24.996094 38.367188 22.585938 38.367188 20.105469 C 38.363281 17.621094 37.882812 15.210938 36.9375 12.941406 Z M 20.179688 38.363281 C 10.226562 38.363281 2.128906 30.171875 2.128906 20.105469 C 2.128906 10.035156 10.226562 1.84375 20.179688 1.84375 C 30.132812 1.84375 38.230469 10.035156 38.230469 20.105469 C 38.230469 30.171875 30.132812 38.363281 20.179688 38.363281 Z M 20.179688 38.363281 "/>
</clipPath>
<radialGradient id="radial24" gradientUnits="userSpaceOnUse" cx="-454.29489" cy="595.95428" fx="-454.29489" fy="595.95428" r="487.2551" gradientTransform="matrix(0.139102,0,0,0.140713,48.344746,-44.918441)">
<stop offset="0" style="stop-color:rgb(29.803922%,25.098039%,60%);stop-opacity:1;"/>
<stop offset="1" style="stop-color:rgb(49.019608%,8.235294%,60.784314%);stop-opacity:1;"/>
</radialGradient>
</defs>
<g id="surface1">
<g clip-path="url(#clip1)" clip-rule="nonzero">
<g clip-path="url(#clip2)" clip-rule="nonzero">
<rect x="0" y="0" width="40" height="40" style="fill:url(#radial0);stroke:none;"/>
</g>
</g>
<g clip-path="url(#clip3)" clip-rule="nonzero">
<g clip-path="url(#clip4)" clip-rule="nonzero">
<rect x="0" y="0" width="40" height="40" style="fill:url(#radial1);stroke:none;"/>
</g>
</g>
<g clip-path="url(#clip5)" clip-rule="nonzero">
<g clip-path="url(#clip6)" clip-rule="nonzero">
<rect x="0" y="0" width="40" height="40" style="fill:url(#radial2);stroke:none;"/>
</g>
</g>
<g clip-path="url(#clip7)" clip-rule="nonzero">
<g clip-path="url(#clip8)" clip-rule="nonzero">
<rect x="0" y="0" width="40" height="40" style="fill:url(#radial3);stroke:none;"/>
</g>
</g>
<g clip-path="url(#clip9)" clip-rule="nonzero">
<g clip-path="url(#clip10)" clip-rule="nonzero">
<rect x="0" y="0" width="40" height="40" style="fill:url(#radial4);stroke:none;"/>
</g>
</g>
<g clip-path="url(#clip11)" clip-rule="nonzero">
<g clip-path="url(#clip12)" clip-rule="nonzero">
<rect x="0" y="0" width="40" height="40" style="fill:url(#radial5);stroke:none;"/>
</g>
</g>
<g clip-path="url(#clip13)" clip-rule="nonzero">
<g clip-path="url(#clip14)" clip-rule="nonzero">
<rect x="0" y="0" width="40" height="40" style="fill:url(#radial6);stroke:none;"/>
</g>
</g>
<g clip-path="url(#clip15)" clip-rule="nonzero">
<g clip-path="url(#clip16)" clip-rule="nonzero">
<rect x="0" y="0" width="40" height="40" style="fill:url(#radial7);stroke:none;"/>
</g>
</g>
<g clip-path="url(#clip17)" clip-rule="nonzero">
<g clip-path="url(#clip18)" clip-rule="nonzero">
<rect x="0" y="0" width="40" height="40" style="fill:url(#radial8);stroke:none;"/>
</g>
</g>
<g clip-path="url(#clip19)" clip-rule="nonzero">
<g clip-path="url(#clip20)" clip-rule="nonzero">
<rect x="0" y="0" width="40" height="40" style="fill:url(#radial9);stroke:none;"/>
</g>
</g>
<g clip-path="url(#clip21)" clip-rule="nonzero">
<g clip-path="url(#clip22)" clip-rule="nonzero">
<rect x="0" y="0" width="40" height="40" style="fill:url(#radial10);stroke:none;"/>
</g>
</g>
<g clip-path="url(#clip23)" clip-rule="nonzero">
<g clip-path="url(#clip24)" clip-rule="nonzero">
<rect x="0" y="0" width="40" height="40" style="fill:url(#radial11);stroke:none;"/>
</g>
</g>
<g clip-path="url(#clip25)" clip-rule="nonzero">
<g clip-path="url(#clip26)" clip-rule="nonzero">
<rect x="0" y="0" width="40" height="40" style="fill:url(#radial12);stroke:none;"/>
</g>
</g>
<g clip-path="url(#clip27)" clip-rule="nonzero">
<g clip-path="url(#clip28)" clip-rule="nonzero">
<rect x="0" y="0" width="40" height="40" style="fill:url(#radial13);stroke:none;"/>
</g>
</g>
<g clip-path="url(#clip29)" clip-rule="nonzero">
<g clip-path="url(#clip30)" clip-rule="nonzero">
<rect x="0" y="0" width="40" height="40" style="fill:url(#radial14);stroke:none;"/>
</g>
</g>
<g clip-path="url(#clip31)" clip-rule="nonzero">
<g clip-path="url(#clip32)" clip-rule="nonzero">
<rect x="0" y="0" width="40" height="40" style="fill:url(#radial15);stroke:none;"/>
</g>
</g>
<g clip-path="url(#clip33)" clip-rule="nonzero">
<g clip-path="url(#clip34)" clip-rule="nonzero">
<rect x="0" y="0" width="40" height="40" style="fill:url(#radial16);stroke:none;"/>
</g>
</g>
<g clip-path="url(#clip35)" clip-rule="nonzero">
<g clip-path="url(#clip36)" clip-rule="nonzero">
<rect x="0" y="0" width="40" height="40" style="fill:url(#radial17);stroke:none;"/>
</g>
</g>
<g clip-path="url(#clip37)" clip-rule="nonzero">
<g clip-path="url(#clip38)" clip-rule="nonzero">
<rect x="0" y="0" width="40" height="40" style="fill:url(#radial18);stroke:none;"/>
</g>
</g>
<g clip-path="url(#clip39)" clip-rule="nonzero">
<g clip-path="url(#clip40)" clip-rule="nonzero">
<rect x="0" y="0" width="40" height="40" style="fill:url(#radial19);stroke:none;"/>
</g>
</g>
<g clip-path="url(#clip41)" clip-rule="nonzero">
<g clip-path="url(#clip42)" clip-rule="nonzero">
<rect x="0" y="0" width="40" height="40" style="fill:url(#radial20);stroke:none;"/>
</g>
</g>
<g clip-path="url(#clip43)" clip-rule="nonzero">
<g clip-path="url(#clip44)" clip-rule="nonzero">
<rect x="0" y="0" width="40" height="40" style="fill:url(#radial21);stroke:none;"/>
</g>
</g>
<g clip-path="url(#clip45)" clip-rule="nonzero">
<g clip-path="url(#clip46)" clip-rule="nonzero">
<rect x="0" y="0" width="40" height="40" style="fill:url(#radial22);stroke:none;"/>
</g>
</g>
<g clip-path="url(#clip47)" clip-rule="nonzero">
<g clip-path="url(#clip48)" clip-rule="nonzero">
<rect x="0" y="0" width="40" height="40" style="fill:url(#radial23);stroke:none;"/>
</g>
</g>
<g clip-path="url(#clip49)" clip-rule="nonzero">
<g clip-path="url(#clip50)" clip-rule="nonzero">
<rect x="0" y="0" width="40" height="40" style="fill:url(#radial24);stroke:none;"/>
</g>
</g>
</g>
</svg>
