<?xml version="1.0" encoding="UTF-8" standalone="no"?>
<!DOCTYPE svg PUBLIC "-//W3C//DTD SVG 1.1//EN" "http://www.w3.org/Graphics/SVG/1.1/DTD/svg11.dtd">
<svg xmlns="http://www.w3.org/2000/svg" version="1.1" viewBox="0.00 0.00 13.00 13.00">
<path stroke="#402747" stroke-width="2.00" fill="none" stroke-linecap="butt" vector-effect="non-scaling-stroke" d="
  M 8.48 6.50
  A 1.99 1.99 0.0 0 0 6.49 4.51
  A 1.99 1.99 0.0 0 0 4.50 6.50
  A 1.99 1.99 0.0 0 0 6.49 8.49
  A 1.99 1.99 0.0 0 0 8.48 6.50"
/>
<path fill="#804e8e" d="
  M 12.41 6.50
  A 5.91 5.91 0.0 0 1 6.50 12.41
  A 5.91 5.91 0.0 0 1 0.59 6.50
  A 5.91 5.91 0.0 0 1 6.50 0.59
  A 5.91 5.91 0.0 0 1 12.41 6.50
  Z
  M 8.48 6.50
  A 1.99 1.99 0.0 0 0 6.49 4.51
  A 1.99 1.99 0.0 0 0 4.50 6.50
  A 1.99 1.99 0.0 0 0 6.49 8.49
  A 1.99 1.99 0.0 0 0 8.48 6.50
  Z"
/>
<circle fill="#000000" cx="6.49" cy="6.50" r="1.99"/>
</svg>
