<?xml version="1.0" encoding="UTF-8"?>
<svg xmlns="http://www.w3.org/2000/svg" xmlns:xlink="http://www.w3.org/1999/xlink" width="16px" height="16px" viewBox="0 0 16 16" version="1.1">
<defs>
<clipPath id="clip1">
  <path d="M 5 4 L 12 4 L 12 11 L 5 11 Z M 5 4 "/>
</clipPath>
<clipPath id="clip2">
  <path d="M 8.292969 4.453125 C 7.492188 4.453125 6.738281 4.769531 6.171875 5.34375 C 5.601562 5.914062 5.289062 6.679688 5.289062 7.488281 C 5.289062 8.300781 5.601562 9.066406 6.171875 9.636719 C 6.738281 10.210938 7.492188 10.527344 8.292969 10.527344 C 9.097656 10.527344 9.851562 10.210938 10.417969 9.636719 C 10.984375 9.066406 11.296875 8.300781 11.296875 7.488281 C 11.296875 6.679688 10.984375 5.914062 10.417969 5.34375 C 9.851562 4.769531 9.097656 4.453125 8.292969 4.453125 Z M 8.292969 10.511719 C 6.648438 10.511719 5.308594 9.15625 5.308594 7.488281 C 5.308594 5.824219 6.648438 4.46875 8.292969 4.46875 C 9.941406 4.46875 11.28125 5.824219 11.28125 7.488281 C 11.28125 9.15625 9.941406 10.511719 8.292969 10.511719 Z M 8.292969 10.511719 "/>
</clipPath>
<radialGradient id="radial0" gradientUnits="userSpaceOnUse" cx="-454.29391" cy="595.95142" fx="-454.29391" fy="595.95142" r="487.25089" gradientTransform="matrix(0.0556407,0,0,0.0562852,19.337898,-17.967376)">
<stop offset="0" style="stop-color:rgb(29.803922%,25.098039%,60%);stop-opacity:1;"/>
<stop offset="1" style="stop-color:rgb(49.019608%,8.235294%,60.784314%);stop-opacity:1;"/>
</radialGradient>
<clipPath id="clip3">
  <path d="M 4 4 L 12 4 L 12 12 L 4 12 Z M 4 4 "/>
</clipPath>
<clipPath id="clip4">
  <path d="M 7.902344 4.957031 C 7.0625 4.957031 6.273438 5.289062 5.679688 5.890625 C 5.082031 6.492188 4.757812 7.289062 4.757812 8.140625 C 4.757812 8.992188 5.082031 9.789062 5.679688 10.390625 C 6.273438 10.992188 7.0625 11.324219 7.902344 11.324219 C 8.742188 11.324219 9.535156 10.992188 10.128906 10.390625 C 10.722656 9.789062 11.050781 8.992188 11.050781 8.140625 C 11.050781 7.289062 10.722656 6.492188 10.128906 5.890625 C 9.535156 5.289062 8.742188 4.957031 7.902344 4.957031 Z M 7.902344 11.230469 C 6.21875 11.230469 4.847656 9.84375 4.847656 8.140625 C 4.847656 6.433594 6.21875 5.046875 7.902344 5.046875 C 9.589844 5.046875 10.960938 6.433594 10.960938 8.140625 C 10.960938 9.84375 9.589844 11.230469 7.902344 11.230469 Z M 7.902344 11.230469 "/>
</clipPath>
<radialGradient id="radial1" gradientUnits="userSpaceOnUse" cx="-454.29391" cy="595.95142" fx="-454.29391" fy="595.95142" r="487.25159" gradientTransform="matrix(0.0556407,0,0,0.0562852,19.337898,-17.967376)">
<stop offset="0" style="stop-color:rgb(29.803922%,25.098039%,60%);stop-opacity:1;"/>
<stop offset="1" style="stop-color:rgb(49.019608%,8.235294%,60.784314%);stop-opacity:1;"/>
</radialGradient>
<clipPath id="clip5">
  <path d="M 4 4 L 11 4 L 11 12 L 4 12 Z M 4 4 "/>
</clipPath>
<clipPath id="clip6">
  <path d="M 7.589844 4.542969 C 6.707031 4.542969 5.878906 4.890625 5.253906 5.523438 C 4.628906 6.15625 4.285156 6.996094 4.285156 7.886719 C 4.285156 8.78125 4.628906 9.621094 5.253906 10.25 C 5.878906 10.882812 6.707031 11.230469 7.589844 11.230469 C 8.472656 11.230469 9.304688 10.882812 9.929688 10.25 C 10.550781 9.621094 10.894531 8.78125 10.894531 7.886719 C 10.894531 6.996094 10.550781 6.15625 9.929688 5.523438 C 9.304688 4.890625 8.472656 4.542969 7.589844 4.542969 Z M 7.589844 11.121094 C 5.828125 11.121094 4.394531 9.671875 4.394531 7.886719 C 4.394531 6.105469 5.828125 4.652344 7.589844 4.652344 C 9.355469 4.652344 10.789062 6.105469 10.789062 7.886719 C 10.789062 9.671875 9.355469 11.121094 7.589844 11.121094 Z M 7.589844 11.121094 "/>
</clipPath>
<radialGradient id="radial2" gradientUnits="userSpaceOnUse" cx="-454.2944" cy="595.95728" fx="-454.2944" fy="595.95728" r="487.25699" gradientTransform="matrix(0.0556407,0,0,0.0562852,19.337898,-17.967376)">
<stop offset="0" style="stop-color:rgb(29.803922%,25.098039%,60%);stop-opacity:1;"/>
<stop offset="1" style="stop-color:rgb(49.019608%,8.235294%,60.784314%);stop-opacity:1;"/>
</radialGradient>
<clipPath id="clip7">
  <path d="M 4 4 L 11 4 L 11 12 L 4 12 Z M 4 4 "/>
</clipPath>
<clipPath id="clip8">
  <path d="M 7.507812 4.445312 C 6.609375 4.445312 5.765625 4.800781 5.128906 5.441406 C 4.496094 6.085938 4.144531 6.941406 4.144531 7.847656 C 4.144531 8.757812 4.496094 9.613281 5.128906 10.257812 C 5.765625 10.898438 6.609375 11.253906 7.507812 11.253906 C 8.410156 11.253906 9.253906 10.898438 9.890625 10.257812 C 10.523438 9.613281 10.875 8.757812 10.875 7.847656 C 10.875 6.941406 10.523438 6.085938 9.890625 5.441406 C 9.253906 4.800781 8.410156 4.445312 7.507812 4.445312 Z M 7.507812 11.234375 C 5.664062 11.234375 4.164062 9.714844 4.164062 7.847656 C 4.164062 5.980469 5.664062 4.464844 7.507812 4.464844 C 9.355469 4.464844 10.855469 5.980469 10.855469 7.847656 C 10.855469 9.714844 9.355469 11.234375 7.507812 11.234375 Z M 7.507812 11.234375 "/>
</clipPath>
<radialGradient id="radial3" gradientUnits="userSpaceOnUse" cx="-454.29199" cy="595.95038" fx="-454.29199" fy="595.95038" r="487.24591" gradientTransform="matrix(0.0556407,0,0,0.0562852,19.337898,-17.967376)">
<stop offset="0" style="stop-color:rgb(29.803922%,25.098039%,60%);stop-opacity:1;"/>
<stop offset="1" style="stop-color:rgb(49.019608%,8.235294%,60.784314%);stop-opacity:1;"/>
</radialGradient>
<clipPath id="clip9">
  <path d="M 3 3 L 12 3 L 12 12 L 3 12 Z M 3 3 "/>
</clipPath>
<clipPath id="clip10">
  <path d="M 7.515625 3.902344 C 6.566406 3.902344 5.675781 4.277344 5.003906 4.957031 C 4.335938 5.632812 3.964844 6.535156 3.964844 7.496094 C 3.964844 8.453125 4.335938 9.355469 5.003906 10.035156 C 5.675781 10.710938 6.566406 11.085938 7.515625 11.085938 C 8.464844 11.085938 9.355469 10.710938 10.027344 10.035156 C 10.695312 9.355469 11.066406 8.453125 11.066406 7.496094 C 11.066406 6.535156 10.695312 5.632812 10.027344 4.957031 C 9.355469 4.277344 8.464844 3.902344 7.515625 3.902344 Z M 7.515625 10.976562 C 5.617188 10.976562 4.074219 9.414062 4.074219 7.492188 C 4.074219 5.574219 5.617188 4.011719 7.515625 4.011719 C 9.414062 4.011719 10.957031 5.574219 10.957031 7.492188 C 10.957031 9.414062 9.414062 10.976562 7.515625 10.976562 Z M 7.515625 10.976562 "/>
</clipPath>
<radialGradient id="radial4" gradientUnits="userSpaceOnUse" cx="-454.293" cy="595.95239" fx="-454.293" fy="595.95239" r="487.24921" gradientTransform="matrix(0.0556407,0,0,0.0562852,19.337898,-17.967376)">
<stop offset="0" style="stop-color:rgb(29.803922%,25.098039%,60%);stop-opacity:1;"/>
<stop offset="1" style="stop-color:rgb(49.019608%,8.235294%,60.784314%);stop-opacity:1;"/>
</radialGradient>
<clipPath id="clip11">
  <path d="M 4 3 L 12 3 L 12 12 L 4 12 Z M 4 3 "/>
</clipPath>
<clipPath id="clip12">
  <path d="M 7.664062 3.921875 C 6.691406 3.921875 5.777344 4.304688 5.089844 5 C 4.402344 5.695312 4.019531 6.621094 4.019531 7.605469 C 4.019531 8.589844 4.402344 9.515625 5.089844 10.214844 C 5.777344 10.910156 6.691406 11.292969 7.664062 11.292969 C 8.636719 11.292969 9.554688 10.910156 10.242188 10.214844 C 10.929688 9.515625 11.308594 8.589844 11.308594 7.605469 C 11.308594 6.621094 10.929688 5.695312 10.242188 5 C 9.554688 4.304688 8.636719 3.921875 7.664062 3.921875 Z M 7.664062 11.273438 C 5.664062 11.273438 4.039062 9.628906 4.039062 7.605469 C 4.039062 5.582031 5.664062 3.9375 7.664062 3.9375 C 9.664062 3.9375 11.292969 5.582031 11.292969 7.605469 C 11.292969 9.628906 9.664062 11.273438 7.664062 11.273438 Z M 7.664062 11.273438 "/>
</clipPath>
<radialGradient id="radial5" gradientUnits="userSpaceOnUse" cx="-454.2959" cy="595.95428" fx="-454.2959" fy="595.95428" r="487.25711" gradientTransform="matrix(0.0556407,0,0,0.0562852,19.337898,-17.967376)">
<stop offset="0" style="stop-color:rgb(29.803922%,25.098039%,60%);stop-opacity:1;"/>
<stop offset="1" style="stop-color:rgb(49.019608%,8.235294%,60.784314%);stop-opacity:1;"/>
</radialGradient>
<clipPath id="clip13">
  <path d="M 3 3 L 12 3 L 12 12 L 3 12 Z M 3 3 "/>
</clipPath>
<clipPath id="clip14">
  <path d="M 7.761719 3.609375 C 6.660156 3.609375 5.625 4.042969 4.84375 4.832031 C 4.0625 5.621094 3.632812 6.671875 3.632812 7.785156 C 3.632812 8.902344 4.0625 9.949219 4.84375 10.738281 C 5.625 11.527344 6.660156 11.960938 7.761719 11.960938 C 8.863281 11.960938 9.902344 11.527344 10.679688 10.738281 C 11.460938 9.949219 11.890625 8.902344 11.890625 7.785156 C 11.890625 6.671875 11.460938 5.621094 10.679688 4.832031 C 9.902344 4.042969 8.863281 3.609375 7.761719 3.609375 Z M 7.761719 11.804688 C 5.570312 11.804688 3.789062 10.003906 3.789062 7.785156 C 3.789062 5.570312 5.570312 3.765625 7.761719 3.765625 C 9.953125 3.765625 11.734375 5.570312 11.734375 7.785156 C 11.734375 10.003906 9.953125 11.804688 7.761719 11.804688 Z M 7.761719 11.804688 "/>
</clipPath>
<radialGradient id="radial6" gradientUnits="userSpaceOnUse" cx="-454.29489" cy="595.95142" fx="-454.29489" fy="595.95142" r="487.25241" gradientTransform="matrix(0.0556407,0,0,0.0562852,19.337898,-17.967376)">
<stop offset="0" style="stop-color:rgb(29.803922%,25.098039%,60%);stop-opacity:1;"/>
<stop offset="1" style="stop-color:rgb(49.019608%,8.235294%,60.784314%);stop-opacity:1;"/>
</radialGradient>
<clipPath id="clip15">
  <path d="M 3 3 L 13 3 L 13 13 L 3 13 Z M 3 3 "/>
</clipPath>
<clipPath id="clip16">
  <path d="M 9.660156 4.289062 C 9.136719 4.066406 8.578125 3.953125 8.003906 3.953125 C 7.429688 3.953125 6.875 4.066406 6.347656 4.289062 C 5.84375 4.507812 5.386719 4.816406 4.996094 5.210938 C 4.605469 5.609375 4.300781 6.066406 4.085938 6.582031 C 3.863281 7.109375 3.75 7.675781 3.75 8.253906 C 3.75 8.835938 3.863281 9.398438 4.085938 9.929688 C 4.300781 10.441406 4.605469 10.902344 4.996094 11.296875 C 5.386719 11.695312 5.84375 12.003906 6.347656 12.222656 C 6.875 12.445312 7.429688 12.558594 8.003906 12.558594 C 8.578125 12.558594 9.136719 12.445312 9.660156 12.222656 C 10.167969 12.003906 10.621094 11.695312 11.011719 11.296875 C 11.402344 10.902344 11.710938 10.441406 11.925781 9.929688 C 12.148438 9.398438 12.257812 8.835938 12.257812 8.253906 C 12.257812 7.675781 12.148438 7.109375 11.925781 6.582031 C 11.710938 6.066406 11.402344 5.609375 11.011719 5.210938 C 10.621094 4.816406 10.167969 4.507812 9.660156 4.289062 Z M 11.933594 8.257812 C 11.933594 10.449219 10.171875 12.230469 8.003906 12.230469 C 5.835938 12.230469 4.074219 10.449219 4.074219 8.257812 C 4.074219 6.0625 5.835938 4.28125 8.003906 4.28125 C 10.171875 4.28125 11.933594 6.0625 11.933594 8.257812 Z M 11.933594 8.257812 "/>
</clipPath>
<radialGradient id="radial7" gradientUnits="userSpaceOnUse" cx="-454.29541" cy="595.95142" fx="-454.29541" fy="595.95142" r="487.2525" gradientTransform="matrix(0.0556407,0,0,0.0562852,19.337898,-17.967376)">
<stop offset="0" style="stop-color:rgb(29.803922%,25.098039%,60%);stop-opacity:1;"/>
<stop offset="1" style="stop-color:rgb(49.019608%,8.235294%,60.784314%);stop-opacity:1;"/>
</radialGradient>
<clipPath id="clip17">
  <path d="M 3 3 L 13 3 L 13 13 L 3 13 Z M 3 3 "/>
</clipPath>
<clipPath id="clip18">
  <path d="M 9.558594 3.699219 C 9.027344 3.472656 8.464844 3.355469 7.882812 3.355469 C 7.300781 3.355469 6.734375 3.472656 6.203125 3.699219 C 5.691406 3.917969 5.230469 4.234375 4.832031 4.632812 C 4.4375 5.035156 4.125 5.5 3.910156 6.019531 C 3.683594 6.558594 3.570312 7.128906 3.570312 7.71875 C 3.570312 8.304688 3.683594 8.878906 3.910156 9.414062 C 4.125 9.933594 4.4375 10.402344 4.832031 10.800781 C 5.230469 11.203125 5.691406 11.515625 6.203125 11.734375 C 6.734375 11.964844 7.300781 12.078125 7.882812 12.078125 C 8.464844 12.078125 9.027344 11.964844 9.558594 11.734375 C 10.074219 11.515625 10.535156 11.203125 10.929688 10.800781 C 11.328125 10.402344 11.636719 9.933594 11.855469 9.414062 C 12.078125 8.878906 12.195312 8.304688 12.195312 7.71875 C 12.195312 7.128906 12.078125 6.558594 11.855469 6.019531 C 11.636719 5.5 11.328125 5.035156 10.929688 4.632812 C 10.535156 4.234375 10.074219 3.917969 9.558594 3.699219 Z M 12.175781 7.71875 C 12.175781 10.113281 10.25 12.0625 7.882812 12.0625 C 5.515625 12.0625 3.589844 10.113281 3.589844 7.71875 C 3.589844 5.324219 5.515625 3.375 7.882812 3.375 C 10.25 3.375 12.175781 5.324219 12.175781 7.71875 Z M 12.175781 7.71875 "/>
</clipPath>
<radialGradient id="radial8" gradientUnits="userSpaceOnUse" cx="-454.2959" cy="595.95239" fx="-454.2959" fy="595.95239" r="487.25601" gradientTransform="matrix(0.0556407,0,0,0.0562852,19.337898,-17.967376)">
<stop offset="0" style="stop-color:rgb(29.803922%,25.098039%,60%);stop-opacity:1;"/>
<stop offset="1" style="stop-color:rgb(49.019608%,8.235294%,60.784314%);stop-opacity:1;"/>
</radialGradient>
<clipPath id="clip19">
  <path d="M 3 3 L 12 3 L 12 13 L 3 13 Z M 3 3 "/>
</clipPath>
<clipPath id="clip20">
  <path d="M 9.292969 3.773438 C 8.746094 3.539062 8.167969 3.421875 7.570312 3.421875 C 6.972656 3.421875 6.390625 3.539062 5.847656 3.773438 C 5.320312 3.996094 4.847656 4.320312 4.4375 4.730469 C 4.03125 5.140625 3.714844 5.621094 3.492188 6.15625 C 3.261719 6.707031 3.144531 7.292969 3.144531 7.898438 C 3.144531 8.5 3.261719 9.085938 3.492188 9.640625 C 3.714844 10.171875 4.03125 10.652344 4.4375 11.0625 C 4.847656 11.472656 5.320312 11.796875 5.847656 12.023438 C 6.390625 12.253906 6.972656 12.375 7.570312 12.375 C 8.167969 12.375 8.746094 12.253906 9.292969 12.023438 C 9.820312 11.796875 10.292969 11.472656 10.699219 11.0625 C 11.105469 10.652344 11.425781 10.171875 11.648438 9.640625 C 11.878906 9.085938 11.996094 8.5 11.996094 7.898438 C 11.996094 7.292969 11.878906 6.707031 11.648438 6.15625 C 11.425781 5.621094 11.105469 5.140625 10.699219 4.730469 C 10.292969 4.320312 9.820312 3.996094 9.292969 3.773438 Z M 11.957031 7.898438 C 11.957031 10.34375 9.988281 12.335938 7.570312 12.335938 C 5.148438 12.335938 3.179688 10.347656 3.179688 7.898438 C 3.179688 5.449219 5.148438 3.457031 7.570312 3.457031 C 9.988281 3.457031 11.957031 5.449219 11.957031 7.898438 Z M 11.957031 7.898438 "/>
</clipPath>
<radialGradient id="radial9" gradientUnits="userSpaceOnUse" cx="-454.29541" cy="595.95343" fx="-454.29541" fy="595.95343" r="487.25641" gradientTransform="matrix(0.0556407,0,0,0.0562852,19.337898,-17.967376)">
<stop offset="0" style="stop-color:rgb(29.803922%,25.098039%,60%);stop-opacity:1;"/>
<stop offset="1" style="stop-color:rgb(49.019608%,8.235294%,60.784314%);stop-opacity:1;"/>
</radialGradient>
<clipPath id="clip21">
  <path d="M 3 3 L 13 3 L 13 14 L 3 14 Z M 3 3 "/>
</clipPath>
<clipPath id="clip22">
  <path d="M 12.140625 6.535156 C 11.902344 5.964844 11.5625 5.453125 11.128906 5.015625 C 10.695312 4.574219 10.191406 4.230469 9.628906 3.992188 C 9.042969 3.742188 8.425781 3.613281 7.785156 3.613281 C 7.148438 3.613281 6.53125 3.742188 5.949219 3.992188 C 5.382812 4.230469 4.878906 4.574219 4.445312 5.015625 C 4.011719 5.453125 3.671875 5.964844 3.433594 6.535156 C 3.1875 7.125 3.0625 7.75 3.0625 8.394531 C 3.0625 9.039062 3.1875 9.667969 3.433594 10.257812 C 3.671875 10.824219 4.011719 11.335938 4.445312 11.777344 C 4.878906 12.214844 5.382812 12.558594 5.949219 12.800781 C 6.53125 13.050781 7.148438 13.175781 7.785156 13.175781 C 8.425781 13.175781 9.042969 13.050781 9.628906 12.800781 C 10.191406 12.558594 10.695312 12.214844 11.128906 11.777344 C 11.5625 11.335938 11.902344 10.824219 12.140625 10.257812 C 12.386719 9.667969 12.511719 9.042969 12.511719 8.394531 C 12.511719 7.75 12.386719 7.125 12.140625 6.535156 Z M 12.273438 8.394531 C 12.273438 10.898438 10.261719 12.933594 7.789062 12.933594 C 5.3125 12.933594 3.300781 10.898438 3.300781 8.394531 C 3.300781 5.894531 5.3125 3.859375 7.789062 3.859375 C 10.261719 3.859375 12.273438 5.894531 12.273438 8.394531 Z M 12.273438 8.394531 "/>
</clipPath>
<radialGradient id="radial10" gradientUnits="userSpaceOnUse" cx="-454.29791" cy="595.95239" fx="-454.29791" fy="595.95239" r="487.26059" gradientTransform="matrix(0.0556407,0,0,0.0562852,19.337898,-17.967376)">
<stop offset="0" style="stop-color:rgb(29.803922%,25.098039%,60%);stop-opacity:1;"/>
<stop offset="1" style="stop-color:rgb(49.019608%,8.235294%,60.784314%);stop-opacity:1;"/>
</radialGradient>
<clipPath id="clip23">
  <path d="M 2 2 L 13 2 L 13 14 L 2 14 Z M 2 2 "/>
</clipPath>
<clipPath id="clip24">
  <path d="M 12.140625 6.042969 C 11.882812 5.429688 11.519531 4.882812 11.050781 4.410156 C 10.585938 3.9375 10.042969 3.566406 9.4375 3.308594 C 8.8125 3.042969 8.144531 2.90625 7.460938 2.90625 C 6.777344 2.90625 6.109375 3.042969 5.484375 3.308594 C 4.878906 3.566406 4.335938 3.9375 3.871094 4.410156 C 3.402344 4.882812 3.039062 5.429688 2.78125 6.042969 C 2.519531 6.675781 2.382812 7.347656 2.382812 8.042969 C 2.382812 8.734375 2.519531 9.410156 2.78125 10.042969 C 3.039062 10.652344 3.40625 11.203125 3.871094 11.675781 C 4.335938 12.144531 4.878906 12.515625 5.484375 12.773438 C 6.109375 13.042969 6.777344 13.179688 7.460938 13.179688 C 8.144531 13.179688 8.8125 13.042969 9.4375 12.773438 C 10.042969 12.515625 10.585938 12.144531 11.050781 11.675781 C 11.519531 11.203125 11.882812 10.652344 12.140625 10.042969 C 12.40625 9.410156 12.539062 8.734375 12.539062 8.042969 C 12.539062 7.347656 12.40625 6.675781 12.140625 6.042969 Z M 7.460938 12.886719 C 4.820312 12.886719 2.671875 10.714844 2.671875 8.042969 C 2.671875 5.371094 4.820312 3.195312 7.460938 3.195312 C 10.101562 3.195312 12.25 5.371094 12.25 8.042969 C 12.25 10.714844 10.101562 12.886719 7.460938 12.886719 Z M 7.460938 12.886719 "/>
</clipPath>
<radialGradient id="radial11" gradientUnits="userSpaceOnUse" cx="-454.29251" cy="595.95239" fx="-454.29251" fy="595.95239" r="487.25491" gradientTransform="matrix(0.0556407,0,0,0.0562852,19.337898,-17.967376)">
<stop offset="0" style="stop-color:rgb(29.803922%,25.098039%,60%);stop-opacity:1;"/>
<stop offset="1" style="stop-color:rgb(49.019608%,8.235294%,60.784314%);stop-opacity:1;"/>
</radialGradient>
<clipPath id="clip25">
  <path d="M 2 2 L 13 2 L 13 14 L 2 14 Z M 2 2 "/>
</clipPath>
<clipPath id="clip26">
  <path d="M 12.269531 5.917969 C 12.007812 5.296875 11.636719 4.734375 11.160156 4.253906 C 10.6875 3.773438 10.132812 3.398438 9.519531 3.132812 C 8.878906 2.863281 8.203125 2.722656 7.503906 2.722656 C 6.808594 2.722656 6.128906 2.863281 5.492188 3.132812 C 4.875 3.398438 4.324219 3.773438 3.847656 4.253906 C 3.375 4.734375 3 5.296875 2.742188 5.917969 C 2.46875 6.5625 2.332031 7.25 2.332031 7.953125 C 2.332031 8.660156 2.46875 9.34375 2.742188 9.992188 C 3 10.613281 3.375 11.171875 3.847656 11.652344 C 4.324219 12.132812 4.875 12.511719 5.492188 12.773438 C 6.128906 13.046875 6.808594 13.183594 7.503906 13.183594 C 8.203125 13.183594 8.878906 13.046875 9.519531 12.773438 C 10.132812 12.511719 10.6875 12.132812 11.160156 11.652344 C 11.636719 11.171875 12.007812 10.613281 12.269531 9.992188 C 12.539062 9.34375 12.675781 8.660156 12.675781 7.953125 C 12.675781 7.25 12.539062 6.5625 12.269531 5.917969 Z M 7.503906 13.132812 C 4.683594 13.132812 2.386719 10.808594 2.386719 7.953125 C 2.386719 5.101562 4.683594 2.777344 7.503906 2.777344 C 10.328125 2.777344 12.621094 5.101562 12.621094 7.953125 C 12.621094 10.808594 10.328125 13.132812 7.503906 13.132812 Z M 7.503906 13.132812 "/>
</clipPath>
<radialGradient id="radial12" gradientUnits="userSpaceOnUse" cx="-454.2959" cy="595.95343" fx="-454.2959" fy="595.95343" r="487.2554" gradientTransform="matrix(0.0556407,0,0,0.0562852,19.337898,-17.967376)">
<stop offset="0" style="stop-color:rgb(29.803922%,25.098039%,60%);stop-opacity:1;"/>
<stop offset="1" style="stop-color:rgb(49.019608%,8.235294%,60.784314%);stop-opacity:1;"/>
</radialGradient>
<clipPath id="clip27">
  <path d="M 2 2 L 14 2 L 14 14 L 2 14 Z M 2 2 "/>
</clipPath>
<clipPath id="clip28">
  <path d="M 12.710938 5.910156 C 12.433594 5.25 12.039062 4.660156 11.539062 4.152344 C 11.039062 3.644531 10.453125 3.246094 9.800781 2.96875 C 9.128906 2.679688 8.414062 2.535156 7.675781 2.535156 C 6.9375 2.535156 6.222656 2.679688 5.550781 2.96875 C 4.898438 3.246094 4.316406 3.644531 3.8125 4.152344 C 3.3125 4.660156 2.917969 5.25 2.644531 5.910156 C 2.359375 6.589844 2.214844 7.3125 2.214844 8.058594 C 2.214844 8.804688 2.359375 9.527344 2.644531 10.210938 C 2.917969 10.867188 3.3125 11.457031 3.8125 11.964844 C 4.316406 12.472656 4.898438 12.871094 5.550781 13.152344 C 6.222656 13.4375 6.9375 13.585938 7.675781 13.585938 C 8.414062 13.585938 9.128906 13.4375 9.800781 13.152344 C 10.453125 12.871094 11.039062 12.472656 11.539062 11.964844 C 12.039062 11.457031 12.433594 10.867188 12.710938 10.210938 C 12.996094 9.527344 13.140625 8.804688 13.140625 8.058594 C 13.140625 7.3125 12.996094 6.589844 12.710938 5.910156 Z M 7.675781 13.367188 C 4.785156 13.367188 2.429688 10.984375 2.429688 8.058594 C 2.429688 5.132812 4.785156 2.753906 7.675781 2.753906 C 10.570312 2.753906 12.921875 5.132812 12.921875 8.058594 C 12.921875 10.984375 10.570312 13.367188 7.675781 13.367188 Z M 7.675781 13.367188 "/>
</clipPath>
<radialGradient id="radial13" gradientUnits="userSpaceOnUse" cx="-454.29639" cy="595.95038" fx="-454.29639" fy="595.95038" r="487.48471" gradientTransform="matrix(0.0556407,0,0,0.0562852,19.337898,-17.967376)">
<stop offset="0" style="stop-color:rgb(29.803922%,25.098039%,60%);stop-opacity:1;"/>
<stop offset="1" style="stop-color:rgb(49.019608%,8.235294%,60.784314%);stop-opacity:1;"/>
</radialGradient>
<clipPath id="clip29">
  <path d="M 2 2 L 14 2 L 14 14 L 2 14 Z M 2 2 "/>
</clipPath>
<clipPath id="clip30">
  <path d="M 12.753906 5.808594 C 12.472656 5.132812 12.070312 4.527344 11.554688 4.007812 C 11.042969 3.488281 10.445312 3.082031 9.777344 2.796875 C 9.089844 2.5 8.355469 2.351562 7.601562 2.351562 C 6.847656 2.351562 6.117188 2.5 5.425781 2.796875 C 4.761719 3.082031 4.164062 3.488281 3.648438 4.007812 C 3.136719 4.527344 2.730469 5.132812 2.449219 5.808594 C 2.160156 6.503906 2.011719 7.246094 2.011719 8.007812 C 2.011719 8.773438 2.160156 9.511719 2.449219 10.210938 C 2.730469 10.882812 3.136719 11.488281 3.648438 12.007812 C 4.164062 12.527344 4.761719 12.9375 5.425781 13.21875 C 6.117188 13.515625 6.847656 13.664062 7.601562 13.664062 C 8.359375 13.664062 9.089844 13.515625 9.777344 13.21875 C 10.445312 12.9375 11.042969 12.527344 11.558594 12.007812 C 12.070312 11.488281 12.472656 10.882812 12.753906 10.210938 C 13.046875 9.511719 13.195312 8.773438 13.195312 8.007812 C 13.195312 7.246094 13.046875 6.503906 12.753906 5.808594 Z M 7.601562 13.609375 C 4.550781 13.609375 2.066406 11.097656 2.066406 8.007812 C 2.066406 4.917969 4.550781 2.40625 7.601562 2.40625 C 10.65625 2.40625 13.140625 4.917969 13.140625 8.007812 C 13.140625 11.097656 10.65625 13.609375 7.601562 13.609375 Z M 7.601562 13.609375 "/>
</clipPath>
<radialGradient id="radial14" gradientUnits="userSpaceOnUse" cx="-454.29349" cy="595.95239" fx="-454.29349" fy="595.95239" r="487.25351" gradientTransform="matrix(0.0556407,0,0,0.0562852,19.337898,-17.967376)">
<stop offset="0" style="stop-color:rgb(29.803922%,25.098039%,60%);stop-opacity:1;"/>
<stop offset="1" style="stop-color:rgb(49.019608%,8.235294%,60.784314%);stop-opacity:1;"/>
</radialGradient>
<clipPath id="clip31">
  <path d="M 2 1 L 14 1 L 14 14 L 2 14 Z M 2 1 "/>
</clipPath>
<clipPath id="clip32">
  <path d="M 13.191406 5.257812 C 12.902344 4.574219 12.492188 3.957031 11.96875 3.429688 C 11.449219 2.902344 10.839844 2.484375 10.164062 2.195312 C 9.460938 1.894531 8.714844 1.742188 7.949219 1.742188 C 7.179688 1.742188 6.4375 1.894531 5.734375 2.195312 C 5.058594 2.484375 4.449219 2.902344 3.925781 3.429688 C 3.402344 3.957031 2.996094 4.574219 2.707031 5.257812 C 2.410156 5.96875 2.261719 6.722656 2.261719 7.496094 C 2.261719 8.273438 2.410156 9.027344 2.707031 9.738281 C 2.992188 10.421875 3.402344 11.039062 3.925781 11.566406 C 4.449219 12.09375 5.058594 12.507812 5.734375 12.800781 C 6.4375 13.097656 7.179688 13.25 7.949219 13.25 C 8.714844 13.25 9.460938 13.097656 10.164062 12.800781 C 10.839844 12.507812 11.449219 12.09375 11.96875 11.566406 C 12.492188 11.039062 12.902344 10.421875 13.191406 9.738281 C 13.484375 9.027344 13.636719 8.273438 13.636719 7.496094 C 13.636719 6.722656 13.484375 5.96875 13.191406 5.257812 Z M 7.949219 13.214844 C 4.832031 13.214844 2.296875 10.648438 2.296875 7.496094 C 2.296875 4.34375 4.832031 1.78125 7.949219 1.78125 C 11.066406 1.78125 13.601562 4.34375 13.601562 7.496094 C 13.601562 10.648438 11.066406 13.214844 7.949219 13.214844 Z M 7.949219 13.214844 "/>
</clipPath>
<radialGradient id="radial15" gradientUnits="userSpaceOnUse" cx="-454.29791" cy="595.95038" fx="-454.29791" fy="595.95038" r="487.26151" gradientTransform="matrix(0.0556407,0,0,0.0562852,19.337898,-17.967376)">
<stop offset="0" style="stop-color:rgb(29.803922%,25.098039%,60%);stop-opacity:1;"/>
<stop offset="1" style="stop-color:rgb(49.019608%,8.235294%,60.784314%);stop-opacity:1;"/>
</radialGradient>
<clipPath id="clip33">
  <path d="M 2 2 L 15 2 L 15 15 L 2 15 Z M 2 2 "/>
</clipPath>
<clipPath id="clip34">
  <path d="M 13.769531 5.941406 C 13.46875 5.214844 13.03125 4.5625 12.480469 4.003906 C 11.925781 3.445312 11.28125 3.003906 10.5625 2.699219 C 9.820312 2.378906 9.03125 2.21875 8.21875 2.21875 C 7.40625 2.21875 6.617188 2.378906 5.875 2.699219 C 5.15625 3.003906 4.511719 3.445312 3.960938 4.003906 C 3.40625 4.5625 2.972656 5.214844 2.667969 5.941406 C 2.355469 6.691406 2.195312 7.488281 2.195312 8.3125 C 2.195312 9.136719 2.355469 9.933594 2.667969 10.683594 C 2.972656 11.410156 3.40625 12.0625 3.960938 12.621094 C 4.511719 13.179688 5.15625 13.621094 5.875 13.929688 C 6.617188 14.246094 7.40625 14.40625 8.21875 14.40625 C 9.03125 14.40625 9.820312 14.246094 10.5625 13.929688 C 11.28125 13.621094 11.925781 13.179688 12.480469 12.621094 C 13.03125 12.0625 13.46875 11.410156 13.769531 10.683594 C 14.085938 9.933594 14.242188 9.136719 14.242188 8.3125 C 14.242188 7.488281 14.085938 6.691406 13.769531 5.941406 Z M 8.21875 14.117188 C 5.054688 14.117188 2.484375 11.511719 2.484375 8.3125 C 2.484375 5.113281 5.054688 2.511719 8.21875 2.511719 C 11.382812 2.511719 13.957031 5.113281 13.957031 8.3125 C 13.957031 11.511719 11.382812 14.117188 8.21875 14.117188 Z M 8.21875 14.117188 "/>
</clipPath>
<radialGradient id="radial16" gradientUnits="userSpaceOnUse" cx="-454.2944" cy="595.95343" fx="-454.2944" fy="595.95343" r="487.25531" gradientTransform="matrix(0.0556407,0,0,0.0562852,19.337898,-17.967376)">
<stop offset="0" style="stop-color:rgb(29.803922%,25.098039%,60%);stop-opacity:1;"/>
<stop offset="1" style="stop-color:rgb(49.019608%,8.235294%,60.784314%);stop-opacity:1;"/>
</radialGradient>
<clipPath id="clip35">
  <path d="M 2 1 L 15 1 L 15 15 L 2 15 Z M 2 1 "/>
</clipPath>
<clipPath id="clip36">
  <path d="M 14.039062 5.523438 C 13.730469 4.789062 13.289062 4.125 12.730469 3.558594 C 12.167969 2.992188 11.515625 2.546875 10.789062 2.234375 C 10.035156 1.914062 9.234375 1.75 8.410156 1.75 C 7.585938 1.75 6.785156 1.914062 6.03125 2.234375 C 5.304688 2.546875 4.652344 2.992188 4.089844 3.558594 C 3.527344 4.125 3.089844 4.789062 2.78125 5.523438 C 2.460938 6.285156 2.300781 7.09375 2.300781 7.929688 C 2.300781 8.761719 2.460938 9.570312 2.78125 10.332031 C 3.089844 11.070312 3.527344 11.730469 4.089844 12.296875 C 4.652344 12.867188 5.304688 13.3125 6.03125 13.621094 C 6.785156 13.945312 7.585938 14.109375 8.410156 14.109375 C 9.234375 14.109375 10.035156 13.945312 10.789062 13.621094 C 11.515625 13.3125 12.167969 12.867188 12.730469 12.296875 C 13.289062 11.730469 13.730469 11.070312 14.039062 10.332031 C 14.355469 9.570312 14.519531 8.761719 14.519531 7.929688 C 14.519531 7.09375 14.355469 6.285156 14.039062 5.523438 Z M 8.410156 14.070312 C 5.0625 14.070312 2.335938 11.316406 2.335938 7.929688 C 2.335938 4.542969 5.0625 1.785156 8.410156 1.785156 C 11.757812 1.785156 14.484375 4.542969 14.484375 7.929688 C 14.484375 11.316406 11.757812 14.070312 8.410156 14.070312 Z M 8.410156 14.070312 "/>
</clipPath>
<radialGradient id="radial17" gradientUnits="userSpaceOnUse" cx="-454.29691" cy="595.95239" fx="-454.29691" fy="595.95239" r="487.25781" gradientTransform="matrix(0.0556407,0,0,0.0562852,19.337898,-17.967376)">
<stop offset="0" style="stop-color:rgb(29.803922%,25.098039%,60%);stop-opacity:1;"/>
<stop offset="1" style="stop-color:rgb(49.019608%,8.235294%,60.784314%);stop-opacity:1;"/>
</radialGradient>
<clipPath id="clip37">
  <path d="M 1 1 L 15 1 L 15 15 L 1 15 Z M 1 1 "/>
</clipPath>
<clipPath id="clip38">
  <path d="M 13.835938 5.546875 C 13.523438 4.792969 13.070312 4.117188 12.5 3.535156 C 11.925781 2.957031 11.253906 2.5 10.511719 2.179688 C 9.742188 1.851562 8.921875 1.683594 8.078125 1.683594 C 7.234375 1.683594 6.417969 1.851562 5.644531 2.179688 C 4.902344 2.5 4.234375 2.957031 3.660156 3.535156 C 3.085938 4.117188 2.636719 4.792969 2.320312 5.546875 C 1.992188 6.324219 1.828125 7.152344 1.828125 8.007812 C 1.828125 8.859375 1.992188 9.6875 2.320312 10.46875 C 2.636719 11.21875 3.085938 11.894531 3.660156 12.476562 C 4.234375 13.058594 4.902344 13.511719 5.644531 13.832031 C 6.417969 14.160156 7.234375 14.328125 8.078125 14.328125 C 8.921875 14.328125 9.742188 14.160156 10.511719 13.832031 C 11.257812 13.511719 11.925781 13.058594 12.5 12.476562 C 13.070312 11.894531 13.523438 11.21875 13.835938 10.46875 C 14.164062 9.6875 14.328125 8.859375 14.328125 8.007812 C 14.328125 7.152344 14.164062 6.324219 13.835938 5.546875 Z M 8.078125 14.21875 C 4.691406 14.21875 1.9375 11.433594 1.9375 8.007812 C 1.9375 4.582031 4.691406 1.792969 8.078125 1.792969 C 11.464844 1.792969 14.21875 4.582031 14.21875 8.007812 C 14.21875 11.433594 11.464844 14.21875 8.078125 14.21875 Z M 8.078125 14.21875 "/>
</clipPath>
<radialGradient id="radial18" gradientUnits="userSpaceOnUse" cx="-454.293" cy="595.95343" fx="-454.293" fy="595.95343" r="487.25311" gradientTransform="matrix(0.0556407,0,0,0.0562852,19.337898,-17.967376)">
<stop offset="0" style="stop-color:rgb(29.803922%,25.098039%,60%);stop-opacity:1;"/>
<stop offset="1" style="stop-color:rgb(49.019608%,8.235294%,60.784314%);stop-opacity:1;"/>
</radialGradient>
<clipPath id="clip39">
  <path d="M 1 1 L 15 1 L 15 15 L 1 15 Z M 1 1 "/>
</clipPath>
<clipPath id="clip40">
  <path d="M 14.269531 5.808594 C 13.941406 5.023438 13.472656 4.320312 12.875 3.714844 C 12.277344 3.109375 11.578125 2.632812 10.804688 2.300781 C 10 1.957031 9.148438 1.785156 8.269531 1.785156 C 7.390625 1.785156 6.535156 1.957031 5.734375 2.300781 C 4.957031 2.632812 4.261719 3.109375 3.664062 3.714844 C 3.0625 4.320312 2.59375 5.023438 2.265625 5.808594 C 1.925781 6.621094 1.753906 7.484375 1.753906 8.371094 C 1.753906 9.261719 1.925781 10.125 2.265625 10.9375 C 2.59375 11.722656 3.0625 12.425781 3.660156 13.03125 C 4.261719 13.636719 4.957031 14.113281 5.734375 14.445312 C 6.535156 14.789062 7.390625 14.960938 8.269531 14.960938 C 9.148438 14.960938 10 14.789062 10.804688 14.445312 C 11.578125 14.113281 12.277344 13.636719 12.875 13.03125 C 13.472656 12.425781 13.941406 11.722656 14.269531 10.9375 C 14.609375 10.125 14.78125 9.261719 14.78125 8.371094 C 14.78125 7.484375 14.609375 6.621094 14.269531 5.808594 Z M 8.269531 14.742188 C 4.796875 14.742188 1.96875 11.886719 1.96875 8.375 C 1.96875 4.859375 4.796875 2.003906 8.269531 2.003906 C 11.742188 2.003906 14.566406 4.859375 14.566406 8.371094 C 14.566406 11.886719 11.742188 14.742188 8.269531 14.742188 Z M 8.269531 14.742188 "/>
</clipPath>
<radialGradient id="radial19" gradientUnits="userSpaceOnUse" cx="-454.29639" cy="595.95239" fx="-454.29639" fy="595.95239" r="487.25919" gradientTransform="matrix(0.0556407,0,0,0.0562852,19.337898,-17.967376)">
<stop offset="0" style="stop-color:rgb(29.803922%,25.098039%,60%);stop-opacity:1;"/>
<stop offset="1" style="stop-color:rgb(49.019608%,8.235294%,60.784314%);stop-opacity:1;"/>
</radialGradient>
<clipPath id="clip41">
  <path d="M 1 0 L 15 0 L 15 15 L 1 15 Z M 1 0 "/>
</clipPath>
<clipPath id="clip42">
  <path d="M 14.09375 4.871094 C 13.757812 4.066406 13.277344 3.347656 12.667969 2.730469 C 12.054688 2.113281 11.34375 1.628906 10.550781 1.289062 C 9.730469 0.9375 8.859375 0.757812 7.964844 0.757812 C 7.066406 0.757812 6.195312 0.9375 5.375 1.289062 C 4.582031 1.628906 3.871094 2.113281 3.257812 2.730469 C 2.648438 3.347656 2.167969 4.066406 1.832031 4.871094 C 1.484375 5.699219 1.308594 6.582031 1.308594 7.488281 C 1.308594 8.398438 1.484375 9.277344 1.832031 10.109375 C 2.167969 10.910156 2.648438 11.628906 3.257812 12.246094 C 3.871094 12.867188 4.582031 13.351562 5.375 13.691406 C 6.195312 14.039062 7.066406 14.21875 7.964844 14.21875 C 8.859375 14.21875 9.730469 14.039062 10.550781 13.691406 C 11.34375 13.351562 12.054688 12.867188 12.667969 12.246094 C 13.277344 11.628906 13.757812 10.910156 14.09375 10.109375 C 14.441406 9.277344 14.617188 8.398438 14.617188 7.488281 C 14.617188 6.582031 14.441406 5.699219 14.09375 4.871094 Z M 7.964844 14.144531 C 4.335938 14.144531 1.382812 11.160156 1.382812 7.488281 C 1.382812 3.820312 4.335938 0.832031 7.964844 0.832031 C 11.589844 0.832031 14.542969 3.820312 14.542969 7.488281 C 14.542969 11.160156 11.589844 14.144531 7.964844 14.144531 Z M 7.964844 14.144531 "/>
</clipPath>
<radialGradient id="radial20" gradientUnits="userSpaceOnUse" cx="-454.29489" cy="595.95142" fx="-454.29489" fy="595.95142" r="487.25381" gradientTransform="matrix(0.0556407,0,0,0.0562852,19.337898,-17.967376)">
<stop offset="0" style="stop-color:rgb(29.803922%,25.098039%,60%);stop-opacity:1;"/>
<stop offset="1" style="stop-color:rgb(49.019608%,8.235294%,60.784314%);stop-opacity:1;"/>
</radialGradient>
<clipPath id="clip43">
  <path d="M 1 1 L 15 1 L 15 14 L 1 14 Z M 1 1 "/>
</clipPath>
<clipPath id="clip44">
  <path d="M 13.757812 5.082031 C 13.445312 4.328125 12.992188 3.648438 12.417969 3.070312 C 11.84375 2.488281 11.175781 2.03125 10.429688 1.710938 C 9.65625 1.382812 8.839844 1.214844 7.992188 1.214844 C 7.148438 1.214844 6.328125 1.382812 5.558594 1.710938 C 4.8125 2.03125 4.144531 2.488281 3.570312 3.070312 C 2.992188 3.648438 2.542969 4.328125 2.226562 5.082031 C 1.902344 5.859375 1.734375 6.691406 1.734375 7.542969 C 1.734375 8.398438 1.902344 9.226562 2.226562 10.007812 C 2.542969 10.761719 2.992188 11.4375 3.566406 12.019531 C 4.144531 12.601562 4.8125 13.058594 5.558594 13.378906 C 6.328125 13.707031 7.148438 13.875 7.992188 13.875 C 8.839844 13.875 9.65625 13.707031 10.429688 13.378906 C 11.175781 13.058594 11.84375 12.601562 12.417969 12.019531 C 12.992188 11.4375 13.445312 10.761719 13.757812 10.007812 C 14.085938 9.226562 14.25 8.398438 14.25 7.542969 C 14.25 6.691406 14.085938 5.859375 13.757812 5.082031 Z M 7.992188 13.644531 C 4.667969 13.644531 1.960938 10.910156 1.960938 7.542969 C 1.960938 4.179688 4.667969 1.445312 7.992188 1.445312 C 11.320312 1.445312 14.023438 4.179688 14.023438 7.542969 C 14.023438 10.910156 11.320312 13.644531 7.992188 13.644531 Z M 7.992188 13.644531 "/>
</clipPath>
<radialGradient id="radial21" gradientUnits="userSpaceOnUse" cx="-454.29391" cy="595.95343" fx="-454.29391" fy="595.95343" r="487.2547" gradientTransform="matrix(0.0556407,0,0,0.0562852,19.337898,-17.967376)">
<stop offset="0" style="stop-color:rgb(29.803922%,25.098039%,60%);stop-opacity:1;"/>
<stop offset="1" style="stop-color:rgb(49.019608%,8.235294%,60.784314%);stop-opacity:1;"/>
</radialGradient>
<clipPath id="clip45">
  <path d="M 1 0 L 16 0 L 16 15 L 1 15 Z M 1 0 "/>
</clipPath>
<clipPath id="clip46">
  <path d="M 14.867188 4.933594 C 14.511719 4.082031 14.003906 3.320312 13.355469 2.664062 C 12.707031 2.011719 11.953125 1.496094 11.117188 1.136719 C 10.246094 0.765625 9.324219 0.578125 8.371094 0.578125 C 7.421875 0.578125 6.5 0.765625 5.628906 1.136719 C 4.789062 1.496094 4.039062 2.011719 3.390625 2.664062 C 2.742188 3.320312 2.234375 4.082031 1.878906 4.933594 C 1.511719 5.808594 1.328125 6.742188 1.328125 7.707031 C 1.328125 8.667969 1.511719 9.601562 1.878906 10.480469 C 2.234375 11.328125 2.742188 12.089844 3.390625 12.746094 C 4.039062 13.402344 4.789062 13.914062 5.628906 14.273438 C 6.5 14.644531 7.421875 14.835938 8.371094 14.835938 C 9.324219 14.835938 10.246094 14.644531 11.117188 14.273438 C 11.953125 13.914062 12.707031 13.402344 13.355469 12.746094 C 14.003906 12.089844 14.511719 11.328125 14.867188 10.480469 C 15.234375 9.601562 15.417969 8.667969 15.417969 7.707031 C 15.417969 6.742188 15.234375 5.808594 14.867188 4.933594 Z M 8.371094 14.816406 C 4.496094 14.816406 1.34375 11.625 1.34375 7.707031 C 1.34375 3.785156 4.496094 0.597656 8.371094 0.597656 C 12.25 0.597656 15.402344 3.785156 15.402344 7.707031 C 15.402344 11.625 12.25 14.816406 8.371094 14.816406 Z M 8.371094 14.816406 "/>
</clipPath>
<radialGradient id="radial22" gradientUnits="userSpaceOnUse" cx="-454.2944" cy="595.95343" fx="-454.2944" fy="595.95343" r="487.2562" gradientTransform="matrix(0.0556407,0,0,0.0562852,19.337898,-17.967376)">
<stop offset="0" style="stop-color:rgb(29.803922%,25.098039%,60%);stop-opacity:1;"/>
<stop offset="1" style="stop-color:rgb(49.019608%,8.235294%,60.784314%);stop-opacity:1;"/>
</radialGradient>
<clipPath id="clip47">
  <path d="M 1 0 L 16 0 L 16 16 L 1 16 Z M 1 0 "/>
</clipPath>
<clipPath id="clip48">
  <path d="M 14.964844 5.140625 C 14.605469 4.277344 14.089844 3.503906 13.429688 2.839844 C 12.773438 2.171875 12.007812 1.652344 11.15625 1.285156 C 10.273438 0.90625 9.335938 0.714844 8.367188 0.714844 C 7.402344 0.714844 6.464844 0.90625 5.582031 1.285156 C 4.726562 1.652344 3.960938 2.171875 3.304688 2.839844 C 2.648438 3.503906 2.128906 4.277344 1.769531 5.140625 C 1.394531 6.035156 1.207031 6.980469 1.207031 7.960938 C 1.207031 8.9375 1.394531 9.886719 1.769531 10.78125 C 2.128906 11.640625 2.648438 12.417969 3.304688 13.082031 C 3.960938 13.746094 4.726562 14.269531 5.582031 14.632812 C 6.464844 15.011719 7.402344 15.203125 8.367188 15.203125 C 9.335938 15.203125 10.273438 15.011719 11.15625 14.632812 C 12.007812 14.269531 12.773438 13.746094 13.429688 13.082031 C 14.089844 12.417969 14.605469 11.640625 14.964844 10.78125 C 15.339844 9.886719 15.527344 8.9375 15.527344 7.960938 C 15.527344 6.980469 15.339844 6.035156 14.964844 5.140625 Z M 8.367188 15.167969 C 4.4375 15.167969 1.242188 11.933594 1.242188 7.960938 C 1.242188 3.984375 4.4375 0.753906 8.367188 0.753906 C 12.296875 0.753906 15.492188 3.984375 15.492188 7.960938 C 15.492188 11.933594 12.296875 15.167969 8.367188 15.167969 Z M 8.367188 15.167969 "/>
</clipPath>
<radialGradient id="radial23" gradientUnits="userSpaceOnUse" cx="-454.5459" cy="595.95239" fx="-454.5459" fy="595.95239" r="487.57141" gradientTransform="matrix(0.0556407,0,0,0.0562852,19.337898,-17.967376)">
<stop offset="0" style="stop-color:rgb(29.803922%,25.098039%,60%);stop-opacity:1;"/>
<stop offset="1" style="stop-color:rgb(49.019608%,8.235294%,60.784314%);stop-opacity:1;"/>
</radialGradient>
<clipPath id="clip49">
  <path d="M 14.773438 5.175781 C 14.40625 4.300781 13.882812 3.515625 13.214844 2.839844 C 12.546875 2.164062 11.769531 1.632812 10.902344 1.261719 C 10.007812 0.878906 9.054688 0.683594 8.070312 0.683594 C 7.089844 0.683594 6.136719 0.878906 5.238281 1.261719 C 4.375 1.632812 3.59375 2.164062 2.925781 2.839844 C 2.257812 3.515625 1.734375 4.300781 1.367188 5.175781 C 0.988281 6.085938 0.796875 7.046875 0.796875 8.042969 C 0.796875 9.035156 0.988281 10 1.367188 10.90625 C 1.734375 11.78125 2.257812 12.570312 2.925781 13.246094 C 3.59375 13.921875 4.375 14.453125 5.238281 14.820312 C 6.136719 15.207031 7.089844 15.398438 8.070312 15.398438 C 9.054688 15.398438 10.007812 15.207031 10.902344 14.820312 C 11.769531 14.453125 12.546875 13.921875 13.214844 13.246094 C 13.882812 12.570312 14.40625 11.78125 14.773438 10.90625 C 15.152344 10 15.347656 9.035156 15.347656 8.042969 C 15.347656 7.046875 15.152344 6.085938 14.773438 5.175781 Z M 8.070312 15.347656 C 4.089844 15.347656 0.851562 12.070312 0.851562 8.042969 C 0.851562 4.015625 4.089844 0.738281 8.070312 0.738281 C 12.054688 0.738281 15.292969 4.015625 15.292969 8.042969 C 15.292969 12.070312 12.054688 15.347656 8.070312 15.347656 Z M 8.070312 15.347656 "/>
</clipPath>
<radialGradient id="radial24" gradientUnits="userSpaceOnUse" cx="-454.29489" cy="595.95428" fx="-454.29489" fy="595.95428" r="487.2551" gradientTransform="matrix(0.0556407,0,0,0.0562852,19.337898,-17.967376)">
<stop offset="0" style="stop-color:rgb(29.803922%,25.098039%,60%);stop-opacity:1;"/>
<stop offset="1" style="stop-color:rgb(49.019608%,8.235294%,60.784314%);stop-opacity:1;"/>
</radialGradient>
</defs>
<g id="surface1">
<g clip-path="url(#clip1)" clip-rule="nonzero">
<g clip-path="url(#clip2)" clip-rule="nonzero">
<rect x="0" y="0" width="16" height="16" style="fill:url(#radial0);stroke:none;"/>
</g>
</g>
<g clip-path="url(#clip3)" clip-rule="nonzero">
<g clip-path="url(#clip4)" clip-rule="nonzero">
<rect x="0" y="0" width="16" height="16" style="fill:url(#radial1);stroke:none;"/>
</g>
</g>
<g clip-path="url(#clip5)" clip-rule="nonzero">
<g clip-path="url(#clip6)" clip-rule="nonzero">
<rect x="0" y="0" width="16" height="16" style="fill:url(#radial2);stroke:none;"/>
</g>
</g>
<g clip-path="url(#clip7)" clip-rule="nonzero">
<g clip-path="url(#clip8)" clip-rule="nonzero">
<rect x="0" y="0" width="16" height="16" style="fill:url(#radial3);stroke:none;"/>
</g>
</g>
<g clip-path="url(#clip9)" clip-rule="nonzero">
<g clip-path="url(#clip10)" clip-rule="nonzero">
<rect x="0" y="0" width="16" height="16" style="fill:url(#radial4);stroke:none;"/>
</g>
</g>
<g clip-path="url(#clip11)" clip-rule="nonzero">
<g clip-path="url(#clip12)" clip-rule="nonzero">
<rect x="0" y="0" width="16" height="16" style="fill:url(#radial5);stroke:none;"/>
</g>
</g>
<g clip-path="url(#clip13)" clip-rule="nonzero">
<g clip-path="url(#clip14)" clip-rule="nonzero">
<rect x="0" y="0" width="16" height="16" style="fill:url(#radial6);stroke:none;"/>
</g>
</g>
<g clip-path="url(#clip15)" clip-rule="nonzero">
<g clip-path="url(#clip16)" clip-rule="nonzero">
<rect x="0" y="0" width="16" height="16" style="fill:url(#radial7);stroke:none;"/>
</g>
</g>
<g clip-path="url(#clip17)" clip-rule="nonzero">
<g clip-path="url(#clip18)" clip-rule="nonzero">
<rect x="0" y="0" width="16" height="16" style="fill:url(#radial8);stroke:none;"/>
</g>
</g>
<g clip-path="url(#clip19)" clip-rule="nonzero">
<g clip-path="url(#clip20)" clip-rule="nonzero">
<rect x="0" y="0" width="16" height="16" style="fill:url(#radial9);stroke:none;"/>
</g>
</g>
<g clip-path="url(#clip21)" clip-rule="nonzero">
<g clip-path="url(#clip22)" clip-rule="nonzero">
<rect x="0" y="0" width="16" height="16" style="fill:url(#radial10);stroke:none;"/>
</g>
</g>
<g clip-path="url(#clip23)" clip-rule="nonzero">
<g clip-path="url(#clip24)" clip-rule="nonzero">
<rect x="0" y="0" width="16" height="16" style="fill:url(#radial11);stroke:none;"/>
</g>
</g>
<g clip-path="url(#clip25)" clip-rule="nonzero">
<g clip-path="url(#clip26)" clip-rule="nonzero">
<rect x="0" y="0" width="16" height="16" style="fill:url(#radial12);stroke:none;"/>
</g>
</g>
<g clip-path="url(#clip27)" clip-rule="nonzero">
<g clip-path="url(#clip28)" clip-rule="nonzero">
<rect x="0" y="0" width="16" height="16" style="fill:url(#radial13);stroke:none;"/>
</g>
</g>
<g clip-path="url(#clip29)" clip-rule="nonzero">
<g clip-path="url(#clip30)" clip-rule="nonzero">
<rect x="0" y="0" width="16" height="16" style="fill:url(#radial14);stroke:none;"/>
</g>
</g>
<g clip-path="url(#clip31)" clip-rule="nonzero">
<g clip-path="url(#clip32)" clip-rule="nonzero">
<rect x="0" y="0" width="16" height="16" style="fill:url(#radial15);stroke:none;"/>
</g>
</g>
<g clip-path="url(#clip33)" clip-rule="nonzero">
<g clip-path="url(#clip34)" clip-rule="nonzero">
<rect x="0" y="0" width="16" height="16" style="fill:url(#radial16);stroke:none;"/>
</g>
</g>
<g clip-path="url(#clip35)" clip-rule="nonzero">
<g clip-path="url(#clip36)" clip-rule="nonzero">
<rect x="0" y="0" width="16" height="16" style="fill:url(#radial17);stroke:none;"/>
</g>
</g>
<g clip-path="url(#clip37)" clip-rule="nonzero">
<g clip-path="url(#clip38)" clip-rule="nonzero">
<rect x="0" y="0" width="16" height="16" style="fill:url(#radial18);stroke:none;"/>
</g>
</g>
<g clip-path="url(#clip39)" clip-rule="nonzero">
<g clip-path="url(#clip40)" clip-rule="nonzero">
<rect x="0" y="0" width="16" height="16" style="fill:url(#radial19);stroke:none;"/>
</g>
</g>
<g clip-path="url(#clip41)" clip-rule="nonzero">
<g clip-path="url(#clip42)" clip-rule="nonzero">
<rect x="0" y="0" width="16" height="16" style="fill:url(#radial20);stroke:none;"/>
</g>
</g>
<g clip-path="url(#clip43)" clip-rule="nonzero">
<g clip-path="url(#clip44)" clip-rule="nonzero">
<rect x="0" y="0" width="16" height="16" style="fill:url(#radial21);stroke:none;"/>
</g>
</g>
<g clip-path="url(#clip45)" clip-rule="nonzero">
<g clip-path="url(#clip46)" clip-rule="nonzero">
<rect x="0" y="0" width="16" height="16" style="fill:url(#radial22);stroke:none;"/>
</g>
</g>
<g clip-path="url(#clip47)" clip-rule="nonzero">
<g clip-path="url(#clip48)" clip-rule="nonzero">
<rect x="0" y="0" width="16" height="16" style="fill:url(#radial23);stroke:none;"/>
</g>
</g>
<g clip-path="url(#clip49)" clip-rule="nonzero">
<rect x="0" y="0" width="16" height="16" style="fill:url(#radial24);stroke:none;"/>
</g>
</g>
</svg>
